G04 EAGLE Gerber RS-274X export*
G75*
%MOMM*%
%FSLAX34Y34*%
%LPD*%
%IN*%
%IPPOS*%
%AMOC8*
5,1,8,0,0,1.08239X$1,22.5*%
G01*
%ADD10C,0.254000*%


D10*
X0Y0D02*
X1200000Y0D01*
X1200000Y1200000D01*
X0Y1200000D01*
X0Y0D01*
X1179000Y128000D02*
X1179010Y127782D01*
X1179038Y127566D01*
X1179085Y127353D01*
X1179151Y127145D01*
X1179234Y126943D01*
X1179335Y126750D01*
X1179452Y126566D01*
X1179585Y126393D01*
X1179732Y126232D01*
X1179893Y126085D01*
X1180066Y125952D01*
X1180250Y125835D01*
X1180443Y125734D01*
X1180645Y125651D01*
X1180853Y125585D01*
X1181066Y125538D01*
X1181282Y125510D01*
X1181500Y125500D01*
X1188500Y125500D01*
X1188718Y125510D01*
X1188934Y125538D01*
X1189147Y125585D01*
X1189355Y125651D01*
X1189557Y125734D01*
X1189750Y125835D01*
X1189934Y125952D01*
X1190107Y126085D01*
X1190268Y126232D01*
X1190415Y126393D01*
X1190548Y126566D01*
X1190665Y126750D01*
X1190766Y126943D01*
X1190849Y127145D01*
X1190915Y127353D01*
X1190962Y127566D01*
X1190991Y127782D01*
X1191000Y128000D01*
X1190991Y128218D01*
X1190962Y128434D01*
X1190915Y128647D01*
X1190849Y128855D01*
X1190766Y129057D01*
X1190665Y129250D01*
X1190548Y129434D01*
X1190415Y129607D01*
X1190268Y129768D01*
X1190107Y129915D01*
X1189934Y130048D01*
X1189750Y130165D01*
X1189557Y130266D01*
X1189355Y130349D01*
X1189147Y130415D01*
X1188934Y130462D01*
X1188718Y130491D01*
X1188500Y130500D01*
X1181500Y130500D01*
X1181282Y130491D01*
X1181066Y130462D01*
X1180853Y130415D01*
X1180645Y130349D01*
X1180443Y130266D01*
X1180250Y130165D01*
X1180066Y130048D01*
X1179893Y129915D01*
X1179732Y129768D01*
X1179585Y129607D01*
X1179452Y129434D01*
X1179335Y129250D01*
X1179234Y129057D01*
X1179151Y128855D01*
X1179085Y128647D01*
X1179038Y128434D01*
X1179010Y128218D01*
X1179000Y128000D01*
X1179000Y62000D02*
X1179010Y61782D01*
X1179038Y61566D01*
X1179085Y61353D01*
X1179151Y61145D01*
X1179234Y60943D01*
X1179335Y60750D01*
X1179452Y60566D01*
X1179585Y60393D01*
X1179732Y60232D01*
X1179893Y60085D01*
X1180066Y59952D01*
X1180250Y59835D01*
X1180443Y59734D01*
X1180645Y59651D01*
X1180853Y59585D01*
X1181066Y59538D01*
X1181282Y59510D01*
X1181500Y59500D01*
X1188500Y59500D01*
X1188718Y59510D01*
X1188934Y59538D01*
X1189147Y59585D01*
X1189355Y59651D01*
X1189557Y59734D01*
X1189750Y59835D01*
X1189934Y59952D01*
X1190107Y60085D01*
X1190268Y60232D01*
X1190415Y60393D01*
X1190548Y60566D01*
X1190665Y60750D01*
X1190766Y60943D01*
X1190849Y61145D01*
X1190915Y61353D01*
X1190962Y61566D01*
X1190991Y61782D01*
X1191000Y62000D01*
X1190991Y62218D01*
X1190962Y62434D01*
X1190915Y62647D01*
X1190849Y62855D01*
X1190766Y63057D01*
X1190665Y63250D01*
X1190548Y63434D01*
X1190415Y63607D01*
X1190268Y63768D01*
X1190107Y63915D01*
X1189934Y64048D01*
X1189750Y64165D01*
X1189557Y64266D01*
X1189355Y64349D01*
X1189147Y64415D01*
X1188934Y64462D01*
X1188718Y64491D01*
X1188500Y64500D01*
X1181500Y64500D01*
X1181282Y64491D01*
X1181066Y64462D01*
X1180853Y64415D01*
X1180645Y64349D01*
X1180443Y64266D01*
X1180250Y64165D01*
X1180066Y64048D01*
X1179893Y63915D01*
X1179732Y63768D01*
X1179585Y63607D01*
X1179452Y63434D01*
X1179335Y63250D01*
X1179234Y63057D01*
X1179151Y62855D01*
X1179085Y62647D01*
X1179038Y62434D01*
X1179010Y62218D01*
X1179000Y62000D01*
X1185197Y64500D02*
X1185585Y64438D01*
X1185960Y64317D01*
X1186310Y64138D01*
X1186629Y63907D01*
X1186907Y63629D01*
X1187138Y63310D01*
X1187317Y62960D01*
X1187438Y62585D01*
X1187500Y62197D01*
X1187500Y61803D01*
X1187438Y61415D01*
X1187317Y61040D01*
X1187138Y60690D01*
X1186907Y60371D01*
X1186629Y60093D01*
X1186310Y59862D01*
X1185960Y59683D01*
X1185585Y59562D01*
X1185197Y59500D01*
X1184803Y59500D01*
X1184415Y59562D01*
X1184040Y59683D01*
X1183690Y59862D01*
X1183371Y60093D01*
X1183093Y60371D01*
X1182862Y60690D01*
X1182683Y61040D01*
X1182562Y61415D01*
X1182500Y61803D01*
X1182500Y62197D01*
X1182562Y62585D01*
X1182683Y62960D01*
X1182862Y63310D01*
X1183093Y63629D01*
X1183371Y63907D01*
X1183690Y64138D01*
X1184040Y64317D01*
X1184415Y64438D01*
X1184803Y64500D01*
X1185197Y64500D01*
X1185197Y130500D02*
X1185585Y130438D01*
X1185960Y130317D01*
X1186310Y130138D01*
X1186629Y129907D01*
X1186907Y129629D01*
X1187138Y129310D01*
X1187317Y128960D01*
X1187438Y128585D01*
X1187500Y128197D01*
X1187500Y127803D01*
X1187438Y127415D01*
X1187317Y127040D01*
X1187138Y126690D01*
X1186907Y126371D01*
X1186629Y126093D01*
X1186310Y125862D01*
X1185960Y125683D01*
X1185585Y125562D01*
X1185197Y125500D01*
X1184803Y125500D01*
X1184415Y125562D01*
X1184040Y125683D01*
X1183690Y125862D01*
X1183371Y126093D01*
X1183093Y126371D01*
X1182862Y126690D01*
X1182683Y127040D01*
X1182562Y127415D01*
X1182500Y127803D01*
X1182500Y128197D01*
X1182562Y128585D01*
X1182683Y128960D01*
X1182862Y129310D01*
X1183093Y129629D01*
X1183371Y129907D01*
X1183690Y130138D01*
X1184040Y130317D01*
X1184415Y130438D01*
X1184803Y130500D01*
X1185197Y130500D01*
M02*
