G04 EAGLE Gerber RS-274X export*
G75*
%MOMM*%
%FSLAX34Y34*%
%LPD*%
%INSilkscreen Top*%
%IPPOS*%
%AMOC8*
5,1,8,0,0,1.08239X$1,22.5*%
G01*
%ADD10C,0.101600*%
%ADD11C,0.076200*%
%ADD12C,0.152400*%
%ADD13C,0.127000*%
%ADD14C,0.200000*%
%ADD15C,0.203200*%


D10*
X623008Y715508D02*
X623008Y719501D01*
X625004Y721497D01*
X627001Y719501D01*
X627001Y715508D01*
X627001Y718503D02*
X623008Y718503D01*
X631450Y715508D02*
X631450Y721497D01*
X629454Y721497D02*
X633446Y721497D01*
X635899Y721497D02*
X635899Y715508D01*
X637895Y719501D02*
X635899Y721497D01*
X637895Y719501D02*
X639892Y721497D01*
X639892Y715508D01*
X642345Y721497D02*
X646337Y721497D01*
X642345Y721497D02*
X642345Y715508D01*
X646337Y715508D01*
X644341Y718503D02*
X642345Y718503D01*
X651785Y721497D02*
X652783Y720499D01*
X651785Y721497D02*
X649788Y721497D01*
X648790Y720499D01*
X648790Y716506D01*
X649788Y715508D01*
X651785Y715508D01*
X652783Y716506D01*
X652783Y718503D01*
X650786Y718503D01*
X655236Y719501D02*
X655236Y715508D01*
X655236Y719501D02*
X657232Y721497D01*
X659228Y719501D01*
X659228Y715508D01*
X659228Y718503D02*
X655236Y718503D01*
X661681Y720499D02*
X662679Y721497D01*
X664676Y721497D01*
X665674Y720499D01*
X665674Y719501D01*
X664676Y718503D01*
X663677Y718503D01*
X664676Y718503D02*
X665674Y717504D01*
X665674Y716506D01*
X664676Y715508D01*
X662679Y715508D01*
X661681Y716506D01*
X668127Y715508D02*
X672119Y715508D01*
X668127Y715508D02*
X672119Y719501D01*
X672119Y720499D01*
X671121Y721497D01*
X669125Y721497D01*
X668127Y720499D01*
X674572Y720499D02*
X675570Y721497D01*
X677567Y721497D01*
X678565Y720499D01*
X678565Y719501D01*
X677567Y718503D01*
X678565Y717504D01*
X678565Y716506D01*
X677567Y715508D01*
X675570Y715508D01*
X674572Y716506D01*
X674572Y717504D01*
X675570Y718503D01*
X674572Y719501D01*
X674572Y720499D01*
X675570Y718503D02*
X677567Y718503D01*
X681018Y718503D02*
X685010Y718503D01*
X687463Y721497D02*
X687463Y715508D01*
X689459Y719501D02*
X687463Y721497D01*
X689459Y719501D02*
X691456Y721497D01*
X691456Y715508D01*
X693909Y716506D02*
X693909Y721497D01*
X693909Y716506D02*
X694907Y715508D01*
X696903Y715508D01*
X697901Y716506D01*
X697901Y721497D01*
D11*
X543000Y484538D02*
X543000Y482538D01*
X543000Y484538D02*
X546000Y481539D01*
X546999Y482538D02*
X545000Y480539D01*
X590873Y531410D02*
X590873Y532410D01*
X591873Y533410D01*
X592872Y533410D01*
X593372Y532910D01*
X593372Y531910D01*
X594372Y531910D01*
X594872Y531410D01*
X594872Y530411D01*
X593872Y529411D01*
X592872Y529411D01*
X592372Y529911D01*
X592372Y530911D01*
X591373Y530911D01*
X590873Y531410D01*
X592372Y530911D02*
X593372Y531910D01*
D10*
X1110508Y767504D02*
X1110508Y771497D01*
X1110508Y767504D02*
X1112504Y765508D01*
X1114501Y767504D01*
X1114501Y771497D01*
X1116954Y768503D02*
X1120946Y768503D01*
X1118950Y770499D02*
X1118950Y766506D01*
X1108503Y723997D02*
X1109501Y722999D01*
X1108503Y723997D02*
X1106506Y723997D01*
X1105508Y722999D01*
X1105508Y722001D01*
X1106506Y721003D01*
X1108503Y721003D01*
X1109501Y720004D01*
X1109501Y719006D01*
X1108503Y718008D01*
X1106506Y718008D01*
X1105508Y719006D01*
X1114948Y723997D02*
X1115946Y722999D01*
X1114948Y723997D02*
X1112952Y723997D01*
X1111954Y722999D01*
X1111954Y719006D01*
X1112952Y718008D01*
X1114948Y718008D01*
X1115946Y719006D01*
X1118399Y718008D02*
X1118399Y723997D01*
X1118399Y718008D02*
X1122392Y718008D01*
X1109501Y747999D02*
X1108503Y748997D01*
X1106506Y748997D01*
X1105508Y747999D01*
X1105508Y747001D01*
X1106506Y746003D01*
X1108503Y746003D01*
X1109501Y745004D01*
X1109501Y744006D01*
X1108503Y743008D01*
X1106506Y743008D01*
X1105508Y744006D01*
X1111954Y743008D02*
X1111954Y748997D01*
X1111954Y743008D02*
X1114948Y743008D01*
X1115946Y744006D01*
X1115946Y747999D01*
X1114948Y748997D01*
X1111954Y748997D01*
X1118399Y747001D02*
X1118399Y743008D01*
X1118399Y747001D02*
X1120395Y748997D01*
X1122392Y747001D01*
X1122392Y743008D01*
X1122392Y746003D02*
X1118399Y746003D01*
X1110508Y671497D02*
X1110508Y667504D01*
X1112504Y665508D01*
X1114501Y667504D01*
X1114501Y671497D01*
X1116954Y668503D02*
X1120946Y668503D01*
X1110508Y690508D02*
X1110508Y696497D01*
X1114501Y690508D01*
X1114501Y696497D01*
X1119948Y696497D02*
X1120946Y695499D01*
X1119948Y696497D02*
X1117952Y696497D01*
X1116954Y695499D01*
X1116954Y691506D01*
X1117952Y690508D01*
X1119948Y690508D01*
X1120946Y691506D01*
D12*
X769754Y1142002D02*
X767506Y1144250D01*
X763010Y1144250D01*
X760762Y1142002D01*
X760762Y1133010D01*
X763010Y1130762D01*
X767506Y1130762D01*
X769754Y1133010D01*
X769754Y1137506D01*
X765258Y1137506D01*
X774574Y1130762D02*
X779070Y1130762D01*
X776822Y1130762D02*
X776822Y1144250D01*
X774574Y1144250D02*
X779070Y1144250D01*
X783782Y1144250D02*
X792773Y1144250D01*
X792773Y1142002D01*
X783782Y1133010D01*
X783782Y1130762D01*
X792773Y1130762D01*
X797593Y1130762D02*
X797593Y1144250D01*
X802089Y1139754D01*
X806585Y1144250D01*
X806585Y1130762D01*
X813653Y1144250D02*
X818149Y1144250D01*
X813653Y1144250D02*
X811405Y1142002D01*
X811405Y1133010D01*
X813653Y1130762D01*
X818149Y1130762D01*
X820397Y1133010D01*
X820397Y1142002D01*
X818149Y1144250D01*
X839029Y1139754D02*
X843525Y1130762D01*
X848020Y1139754D01*
X852841Y1139754D02*
X857336Y1144250D01*
X857336Y1130762D01*
X852841Y1130762D02*
X861832Y1130762D01*
D10*
X760004Y1115508D02*
X755508Y1115508D01*
X760004Y1115508D02*
X761502Y1117007D01*
X760004Y1118505D01*
X757007Y1118505D01*
X755508Y1120004D01*
X757007Y1121502D01*
X761502Y1121502D01*
X767713Y1112511D02*
X769212Y1112511D01*
X770710Y1114009D01*
X770710Y1121502D01*
X766214Y1121502D01*
X764716Y1120004D01*
X764716Y1117007D01*
X766214Y1115508D01*
X770710Y1115508D01*
X775422Y1121502D02*
X779918Y1121502D01*
X775422Y1121502D02*
X773924Y1120004D01*
X773924Y1117007D01*
X775422Y1115508D01*
X779918Y1115508D01*
X792339Y1115508D02*
X798334Y1124500D01*
X812254Y1121502D02*
X815251Y1121502D01*
X816750Y1120004D01*
X816750Y1115508D01*
X812254Y1115508D01*
X810755Y1117007D01*
X812254Y1118505D01*
X816750Y1118505D01*
X819963Y1117007D02*
X819963Y1121502D01*
X819963Y1117007D02*
X821462Y1115508D01*
X825957Y1115508D01*
X825957Y1121502D01*
X832168Y1112511D02*
X833667Y1112511D01*
X835165Y1114009D01*
X835165Y1121502D01*
X830669Y1121502D01*
X829171Y1120004D01*
X829171Y1117007D01*
X830669Y1115508D01*
X835165Y1115508D01*
X849085Y1123001D02*
X849085Y1125998D01*
X849085Y1123001D02*
X847586Y1121502D01*
X852190Y1121502D02*
X855188Y1124500D01*
X855188Y1115508D01*
X858185Y1115508D02*
X852190Y1115508D01*
X861398Y1117007D02*
X862897Y1115508D01*
X865894Y1115508D01*
X867393Y1117007D01*
X867393Y1123001D01*
X865894Y1124500D01*
X862897Y1124500D01*
X861398Y1123001D01*
X861398Y1121502D01*
X862897Y1120004D01*
X867393Y1120004D01*
D12*
X624950Y695050D02*
X624950Y624950D01*
X624950Y695050D02*
X695050Y695050D01*
X695050Y628500D01*
X691500Y624950D02*
X624950Y624950D01*
X691500Y624950D02*
X695050Y628500D01*
X683840Y632568D02*
X683842Y632687D01*
X683848Y632807D01*
X683858Y632926D01*
X683872Y633044D01*
X683890Y633162D01*
X683911Y633280D01*
X683937Y633396D01*
X683966Y633512D01*
X684000Y633627D01*
X684037Y633740D01*
X684078Y633852D01*
X684122Y633963D01*
X684170Y634073D01*
X684222Y634180D01*
X684277Y634286D01*
X684336Y634390D01*
X684399Y634492D01*
X684464Y634591D01*
X684533Y634689D01*
X684605Y634784D01*
X684680Y634877D01*
X684759Y634967D01*
X684840Y635055D01*
X684924Y635139D01*
X685011Y635221D01*
X685100Y635300D01*
X685192Y635376D01*
X685287Y635449D01*
X685384Y635519D01*
X685483Y635585D01*
X685585Y635648D01*
X685688Y635708D01*
X685793Y635764D01*
X685900Y635817D01*
X686009Y635866D01*
X686120Y635912D01*
X686232Y635953D01*
X686345Y635991D01*
X686459Y636026D01*
X686575Y636056D01*
X686691Y636083D01*
X686808Y636105D01*
X686926Y636124D01*
X687045Y636139D01*
X687164Y636150D01*
X687283Y636157D01*
X687402Y636160D01*
X687522Y636159D01*
X687641Y636154D01*
X687760Y636145D01*
X687879Y636132D01*
X687997Y636115D01*
X688114Y636095D01*
X688231Y636070D01*
X688347Y636041D01*
X688462Y636009D01*
X688576Y635973D01*
X688689Y635933D01*
X688800Y635889D01*
X688909Y635842D01*
X689017Y635791D01*
X689124Y635737D01*
X689228Y635679D01*
X689330Y635617D01*
X689431Y635553D01*
X689529Y635484D01*
X689625Y635413D01*
X689718Y635339D01*
X689809Y635261D01*
X689897Y635181D01*
X689982Y635097D01*
X690065Y635011D01*
X690145Y634922D01*
X690222Y634831D01*
X690295Y634737D01*
X690366Y634640D01*
X690433Y634542D01*
X690497Y634441D01*
X690558Y634338D01*
X690615Y634233D01*
X690668Y634127D01*
X690718Y634018D01*
X690765Y633908D01*
X690807Y633797D01*
X690846Y633684D01*
X690882Y633570D01*
X690913Y633454D01*
X690940Y633338D01*
X690964Y633221D01*
X690984Y633103D01*
X691000Y632985D01*
X691012Y632866D01*
X691020Y632747D01*
X691024Y632628D01*
X691024Y632508D01*
X691020Y632389D01*
X691012Y632270D01*
X691000Y632151D01*
X690984Y632033D01*
X690964Y631915D01*
X690940Y631798D01*
X690913Y631682D01*
X690882Y631566D01*
X690846Y631452D01*
X690807Y631339D01*
X690765Y631228D01*
X690718Y631118D01*
X690668Y631009D01*
X690615Y630903D01*
X690558Y630798D01*
X690497Y630695D01*
X690433Y630594D01*
X690366Y630496D01*
X690295Y630399D01*
X690222Y630305D01*
X690145Y630214D01*
X690065Y630125D01*
X689982Y630039D01*
X689897Y629955D01*
X689809Y629875D01*
X689718Y629797D01*
X689625Y629723D01*
X689529Y629652D01*
X689431Y629583D01*
X689330Y629519D01*
X689228Y629457D01*
X689124Y629399D01*
X689017Y629345D01*
X688909Y629294D01*
X688800Y629247D01*
X688689Y629203D01*
X688576Y629163D01*
X688462Y629127D01*
X688347Y629095D01*
X688231Y629066D01*
X688114Y629041D01*
X687997Y629021D01*
X687879Y629004D01*
X687760Y628991D01*
X687641Y628982D01*
X687522Y628977D01*
X687402Y628976D01*
X687283Y628979D01*
X687164Y628986D01*
X687045Y628997D01*
X686926Y629012D01*
X686808Y629031D01*
X686691Y629053D01*
X686575Y629080D01*
X686459Y629110D01*
X686345Y629145D01*
X686232Y629183D01*
X686120Y629224D01*
X686009Y629270D01*
X685900Y629319D01*
X685793Y629372D01*
X685688Y629428D01*
X685585Y629488D01*
X685483Y629551D01*
X685384Y629617D01*
X685287Y629687D01*
X685192Y629760D01*
X685100Y629836D01*
X685011Y629915D01*
X684924Y629997D01*
X684840Y630081D01*
X684759Y630169D01*
X684680Y630259D01*
X684605Y630352D01*
X684533Y630447D01*
X684464Y630545D01*
X684399Y630644D01*
X684336Y630746D01*
X684277Y630850D01*
X684222Y630956D01*
X684170Y631063D01*
X684122Y631173D01*
X684078Y631284D01*
X684037Y631396D01*
X684000Y631509D01*
X683966Y631624D01*
X683937Y631740D01*
X683911Y631856D01*
X683890Y631974D01*
X683872Y632092D01*
X683858Y632210D01*
X683848Y632329D01*
X683842Y632449D01*
X683840Y632568D01*
D10*
X646872Y794063D02*
X640883Y794063D01*
X640883Y797057D01*
X641881Y798055D01*
X643877Y798055D01*
X644876Y797057D01*
X644876Y794063D01*
X644876Y796059D02*
X646872Y798055D01*
X642879Y800508D02*
X640883Y802504D01*
X646872Y802504D01*
X646872Y800508D02*
X646872Y804501D01*
X713123Y504063D02*
X719112Y504063D01*
X713123Y504063D02*
X713123Y507057D01*
X714121Y508055D01*
X716117Y508055D01*
X717116Y507057D01*
X717116Y504063D01*
X717116Y506059D02*
X719112Y508055D01*
X719112Y510508D02*
X719112Y514501D01*
X719112Y510508D02*
X715119Y514501D01*
X714121Y514501D01*
X713123Y513503D01*
X713123Y511506D01*
X714121Y510508D01*
X716612Y554063D02*
X710623Y554063D01*
X710623Y557057D01*
X711621Y558055D01*
X713617Y558055D01*
X714616Y557057D01*
X714616Y554063D01*
X714616Y556059D02*
X716612Y558055D01*
X711621Y560508D02*
X710623Y561506D01*
X710623Y563503D01*
X711621Y564501D01*
X712619Y564501D01*
X713617Y563503D01*
X713617Y562504D01*
X713617Y563503D02*
X714616Y564501D01*
X715614Y564501D01*
X716612Y563503D01*
X716612Y561506D01*
X715614Y560508D01*
X750883Y794063D02*
X756872Y794063D01*
X750883Y794063D02*
X750883Y797057D01*
X751881Y798055D01*
X753877Y798055D01*
X754876Y797057D01*
X754876Y794063D01*
X754876Y796059D02*
X756872Y798055D01*
X756872Y803503D02*
X750883Y803503D01*
X753877Y800508D01*
X753877Y804501D01*
X756612Y554063D02*
X750623Y554063D01*
X750623Y557057D01*
X751621Y558055D01*
X753617Y558055D01*
X754616Y557057D01*
X754616Y554063D01*
X754616Y556059D02*
X756612Y558055D01*
X750623Y560508D02*
X750623Y564501D01*
X750623Y560508D02*
X753617Y560508D01*
X752619Y562504D01*
X752619Y563503D01*
X753617Y564501D01*
X755614Y564501D01*
X756612Y563503D01*
X756612Y561506D01*
X755614Y560508D01*
X716872Y794063D02*
X710883Y794063D01*
X710883Y797057D01*
X711881Y798055D01*
X713877Y798055D01*
X714876Y797057D01*
X714876Y794063D01*
X714876Y796059D02*
X716872Y798055D01*
X711881Y802504D02*
X710883Y804501D01*
X711881Y802504D02*
X713877Y800508D01*
X715874Y800508D01*
X716872Y801506D01*
X716872Y803503D01*
X715874Y804501D01*
X714876Y804501D01*
X713877Y803503D01*
X713877Y800508D01*
X596872Y694063D02*
X590883Y694063D01*
X590883Y697057D01*
X591881Y698055D01*
X593877Y698055D01*
X594876Y697057D01*
X594876Y694063D01*
X594876Y696059D02*
X596872Y698055D01*
X590883Y700508D02*
X590883Y704501D01*
X591881Y704501D01*
X595874Y700508D01*
X596872Y700508D01*
X596872Y614063D02*
X590883Y614063D01*
X590883Y617057D01*
X591881Y618055D01*
X593877Y618055D01*
X594876Y617057D01*
X594876Y614063D01*
X594876Y616059D02*
X596872Y618055D01*
X591881Y620508D02*
X590883Y621506D01*
X590883Y623503D01*
X591881Y624501D01*
X592879Y624501D01*
X593877Y623503D01*
X594876Y624501D01*
X595874Y624501D01*
X596872Y623503D01*
X596872Y621506D01*
X595874Y620508D01*
X594876Y620508D01*
X593877Y621506D01*
X592879Y620508D01*
X591881Y620508D01*
X593877Y621506D02*
X593877Y623503D01*
D13*
X919200Y1079900D02*
X990800Y1079900D01*
X937450Y1164950D02*
X919450Y1164950D01*
X937450Y1164950D02*
X972550Y1164950D01*
X990550Y1164950D01*
X972550Y1164950D02*
X972550Y1203500D01*
X937450Y1203500D01*
X937450Y1164950D01*
X919450Y1164950D02*
X919450Y1115000D01*
X990550Y1115150D02*
X990550Y1164950D01*
D10*
X896669Y1135969D02*
X895671Y1136967D01*
X893674Y1136967D01*
X892676Y1135969D01*
X892676Y1134970D01*
X893674Y1133972D01*
X895671Y1133972D01*
X896669Y1132974D01*
X896669Y1131976D01*
X895671Y1130978D01*
X893674Y1130978D01*
X892676Y1131976D01*
X899122Y1134970D02*
X901118Y1136967D01*
X901118Y1130978D01*
X899122Y1130978D02*
X903115Y1130978D01*
D14*
X1149000Y75000D02*
X1149002Y75063D01*
X1149008Y75125D01*
X1149018Y75187D01*
X1149031Y75249D01*
X1149049Y75309D01*
X1149070Y75368D01*
X1149095Y75426D01*
X1149124Y75482D01*
X1149156Y75536D01*
X1149191Y75588D01*
X1149229Y75637D01*
X1149271Y75685D01*
X1149315Y75729D01*
X1149363Y75771D01*
X1149412Y75809D01*
X1149464Y75844D01*
X1149518Y75876D01*
X1149574Y75905D01*
X1149632Y75930D01*
X1149691Y75951D01*
X1149751Y75969D01*
X1149813Y75982D01*
X1149875Y75992D01*
X1149937Y75998D01*
X1150000Y76000D01*
X1150063Y75998D01*
X1150125Y75992D01*
X1150187Y75982D01*
X1150249Y75969D01*
X1150309Y75951D01*
X1150368Y75930D01*
X1150426Y75905D01*
X1150482Y75876D01*
X1150536Y75844D01*
X1150588Y75809D01*
X1150637Y75771D01*
X1150685Y75729D01*
X1150729Y75685D01*
X1150771Y75637D01*
X1150809Y75588D01*
X1150844Y75536D01*
X1150876Y75482D01*
X1150905Y75426D01*
X1150930Y75368D01*
X1150951Y75309D01*
X1150969Y75249D01*
X1150982Y75187D01*
X1150992Y75125D01*
X1150998Y75063D01*
X1151000Y75000D01*
X1150998Y74937D01*
X1150992Y74875D01*
X1150982Y74813D01*
X1150969Y74751D01*
X1150951Y74691D01*
X1150930Y74632D01*
X1150905Y74574D01*
X1150876Y74518D01*
X1150844Y74464D01*
X1150809Y74412D01*
X1150771Y74363D01*
X1150729Y74315D01*
X1150685Y74271D01*
X1150637Y74229D01*
X1150588Y74191D01*
X1150536Y74156D01*
X1150482Y74124D01*
X1150426Y74095D01*
X1150368Y74070D01*
X1150309Y74049D01*
X1150249Y74031D01*
X1150187Y74018D01*
X1150125Y74008D01*
X1150063Y74002D01*
X1150000Y74000D01*
X1149937Y74002D01*
X1149875Y74008D01*
X1149813Y74018D01*
X1149751Y74031D01*
X1149691Y74049D01*
X1149632Y74070D01*
X1149574Y74095D01*
X1149518Y74124D01*
X1149464Y74156D01*
X1149412Y74191D01*
X1149363Y74229D01*
X1149315Y74271D01*
X1149271Y74315D01*
X1149229Y74363D01*
X1149191Y74412D01*
X1149156Y74464D01*
X1149124Y74518D01*
X1149095Y74574D01*
X1149070Y74632D01*
X1149049Y74691D01*
X1149031Y74751D01*
X1149018Y74813D01*
X1149008Y74875D01*
X1149002Y74937D01*
X1149000Y75000D01*
D13*
X1199500Y57000D02*
X1199500Y133000D01*
X1174000Y57000D02*
X1170000Y57000D01*
X1170000Y133000D02*
X1174000Y133000D01*
X1196000Y57000D02*
X1199000Y57000D01*
X1199000Y133000D02*
X1196000Y133000D01*
D10*
X1194955Y141964D02*
X1195953Y142962D01*
X1195953Y143960D01*
X1194955Y144958D01*
X1189964Y144958D01*
X1189964Y143960D02*
X1189964Y145957D01*
X1195953Y148409D02*
X1195953Y152402D01*
X1195953Y148409D02*
X1191960Y152402D01*
X1190962Y152402D01*
X1189964Y151404D01*
X1189964Y149408D01*
X1190962Y148409D01*
X1135651Y143151D02*
X1134653Y142153D01*
X1134653Y140156D01*
X1135651Y139158D01*
X1139644Y139158D01*
X1140642Y140156D01*
X1140642Y142153D01*
X1139644Y143151D01*
X1135651Y145604D02*
X1134653Y146602D01*
X1134653Y148598D01*
X1135651Y149596D01*
X1136649Y149596D01*
X1137647Y148598D01*
X1137647Y147600D01*
X1137647Y148598D02*
X1138646Y149596D01*
X1139644Y149596D01*
X1140642Y148598D01*
X1140642Y146602D01*
X1139644Y145604D01*
X1113151Y43151D02*
X1112153Y42153D01*
X1112153Y40156D01*
X1113151Y39158D01*
X1117144Y39158D01*
X1118142Y40156D01*
X1118142Y42153D01*
X1117144Y43151D01*
X1118142Y48598D02*
X1112153Y48598D01*
X1115147Y45604D01*
X1115147Y49596D01*
X1117842Y138967D02*
X1111853Y138967D01*
X1111853Y141962D01*
X1112851Y142960D01*
X1114847Y142960D01*
X1115846Y141962D01*
X1115846Y138967D01*
X1115846Y140963D02*
X1117842Y142960D01*
X1116844Y145413D02*
X1117842Y146411D01*
X1117842Y148407D01*
X1116844Y149405D01*
X1112851Y149405D01*
X1111853Y148407D01*
X1111853Y146411D01*
X1112851Y145413D01*
X1113849Y145413D01*
X1114847Y146411D01*
X1114847Y149405D01*
D13*
X1143850Y78970D02*
X1143850Y51030D01*
X1131150Y51030D01*
X1131150Y78970D01*
X1143850Y78970D01*
D10*
X1142882Y36667D02*
X1136893Y36667D01*
X1142882Y36667D02*
X1142882Y40660D01*
X1138889Y43113D02*
X1136893Y45109D01*
X1142882Y45109D01*
X1142882Y43113D02*
X1142882Y47105D01*
D12*
X1152700Y688250D02*
X1152700Y700950D01*
X1152700Y688250D02*
X1146350Y681900D01*
X1133650Y681900D01*
X1127300Y688250D01*
X1152700Y726350D02*
X1146350Y732700D01*
X1152700Y726350D02*
X1152700Y713650D01*
X1146350Y707300D01*
X1133650Y707300D01*
X1127300Y713650D01*
X1127300Y726350D01*
X1133650Y732700D01*
X1146350Y707300D02*
X1152700Y700950D01*
X1133650Y707300D02*
X1127300Y700950D01*
X1127300Y688250D01*
X1152700Y764450D02*
X1152700Y777150D01*
X1152700Y764450D02*
X1146350Y758100D01*
X1133650Y758100D01*
X1127300Y764450D01*
X1146350Y758100D02*
X1152700Y751750D01*
X1152700Y739050D01*
X1146350Y732700D01*
X1133650Y732700D01*
X1127300Y739050D01*
X1127300Y751750D01*
X1133650Y758100D01*
X1133650Y783500D02*
X1146350Y783500D01*
X1152700Y777150D01*
X1133650Y783500D02*
X1127300Y777150D01*
X1127300Y764450D01*
X1152700Y675550D02*
X1152700Y662850D01*
X1146350Y656500D01*
X1133650Y656500D01*
X1127300Y662850D01*
X1146350Y681900D02*
X1152700Y675550D01*
X1133650Y681900D02*
X1127300Y675550D01*
X1127300Y662850D01*
D10*
X1148782Y786879D02*
X1149780Y787877D01*
X1149780Y788875D01*
X1148782Y789874D01*
X1143791Y789874D01*
X1143791Y790872D02*
X1143791Y788875D01*
X1145787Y793325D02*
X1143791Y795321D01*
X1149780Y795321D01*
X1149780Y793325D02*
X1149780Y797317D01*
D15*
X566150Y1129800D02*
X559800Y1136150D01*
X578850Y1129800D02*
X585200Y1136150D01*
X591550Y1129800D01*
X604250Y1129800D02*
X610600Y1136150D01*
X616950Y1129800D01*
X629650Y1129800D02*
X636000Y1136150D01*
X559800Y1136150D02*
X559800Y1174250D01*
X566150Y1180600D01*
X578850Y1180600D01*
X585200Y1174250D01*
X591550Y1180600D01*
X604250Y1180600D01*
X610600Y1174250D01*
X616950Y1180600D01*
X629650Y1180600D01*
X636000Y1174250D01*
X585200Y1174250D02*
X585200Y1136150D01*
X610600Y1136150D02*
X610600Y1174250D01*
X636000Y1174250D02*
X636000Y1136150D01*
X629650Y1129800D02*
X616950Y1129800D01*
X604250Y1129800D02*
X591550Y1129800D01*
X578850Y1129800D02*
X566150Y1129800D01*
X566150Y1126450D02*
X578850Y1126450D01*
D10*
X543415Y1151648D02*
X542417Y1152646D01*
X543415Y1151648D02*
X544413Y1151648D01*
X545412Y1152646D01*
X545412Y1157637D01*
X546410Y1157637D02*
X544413Y1157637D01*
X548863Y1156639D02*
X549861Y1157637D01*
X551857Y1157637D01*
X552855Y1156639D01*
X552855Y1155641D01*
X551857Y1154643D01*
X550859Y1154643D01*
X551857Y1154643D02*
X552855Y1153644D01*
X552855Y1152646D01*
X551857Y1151648D01*
X549861Y1151648D01*
X548863Y1152646D01*
X729701Y670310D02*
X728703Y669312D01*
X728703Y667315D01*
X729701Y666317D01*
X733694Y666317D01*
X734692Y667315D01*
X734692Y669312D01*
X733694Y670310D01*
X730699Y672763D02*
X728703Y674759D01*
X734692Y674759D01*
X734692Y672763D02*
X734692Y676755D01*
D15*
X1092300Y528250D02*
X1092300Y515550D01*
X1092300Y528250D02*
X1098650Y534600D01*
X1111350Y534600D02*
X1117700Y528250D01*
X1092300Y490150D02*
X1098650Y483800D01*
X1092300Y490150D02*
X1092300Y502850D01*
X1098650Y509200D01*
X1111350Y509200D02*
X1117700Y502850D01*
X1117700Y490150D01*
X1111350Y483800D01*
X1098650Y509200D02*
X1092300Y515550D01*
X1111350Y509200D02*
X1117700Y515550D01*
X1117700Y528250D01*
X1092300Y452050D02*
X1092300Y439350D01*
X1092300Y452050D02*
X1098650Y458400D01*
X1111350Y458400D02*
X1117700Y452050D01*
X1098650Y458400D02*
X1092300Y464750D01*
X1092300Y477450D01*
X1098650Y483800D01*
X1111350Y483800D02*
X1117700Y477450D01*
X1117700Y464750D01*
X1111350Y458400D01*
X1092300Y413950D02*
X1098650Y407600D01*
X1092300Y413950D02*
X1092300Y426650D01*
X1098650Y433000D01*
X1111350Y433000D02*
X1117700Y426650D01*
X1117700Y413950D01*
X1111350Y407600D01*
X1098650Y433000D02*
X1092300Y439350D01*
X1111350Y433000D02*
X1117700Y439350D01*
X1117700Y452050D01*
X1092300Y375850D02*
X1092300Y363150D01*
X1092300Y375850D02*
X1098650Y382200D01*
X1111350Y382200D02*
X1117700Y375850D01*
X1098650Y382200D02*
X1092300Y388550D01*
X1092300Y401250D01*
X1098650Y407600D01*
X1111350Y407600D02*
X1117700Y401250D01*
X1117700Y388550D01*
X1111350Y382200D01*
X1111350Y356800D02*
X1098650Y356800D01*
X1092300Y363150D01*
X1111350Y356800D02*
X1117700Y363150D01*
X1117700Y375850D01*
X1092300Y540950D02*
X1092300Y553650D01*
X1098650Y560000D01*
X1111350Y560000D01*
X1117700Y553650D01*
X1098650Y534600D02*
X1092300Y540950D01*
X1111350Y534600D02*
X1117700Y540950D01*
X1117700Y553650D01*
D13*
X1090395Y358240D02*
X1089590Y357435D01*
X1090395Y358240D02*
X1090395Y359045D01*
X1089590Y359850D01*
X1085565Y359850D01*
X1085565Y359045D02*
X1085565Y360655D01*
X1085565Y365463D02*
X1090395Y365463D01*
X1087980Y363048D02*
X1085565Y365463D01*
X1087980Y366268D02*
X1087980Y363048D01*
D15*
X670750Y107700D02*
X658050Y107700D01*
X670750Y107700D02*
X677100Y101350D01*
X677100Y88650D02*
X670750Y82300D01*
X632650Y107700D02*
X626300Y101350D01*
X632650Y107700D02*
X645350Y107700D01*
X651700Y101350D01*
X651700Y88650D02*
X645350Y82300D01*
X632650Y82300D01*
X626300Y88650D01*
X651700Y101350D02*
X658050Y107700D01*
X651700Y88650D02*
X658050Y82300D01*
X670750Y82300D01*
X594550Y107700D02*
X581850Y107700D01*
X594550Y107700D02*
X600900Y101350D01*
X600900Y88650D02*
X594550Y82300D01*
X600900Y101350D02*
X607250Y107700D01*
X619950Y107700D01*
X626300Y101350D01*
X626300Y88650D02*
X619950Y82300D01*
X607250Y82300D01*
X600900Y88650D01*
X556450Y107700D02*
X550100Y101350D01*
X556450Y107700D02*
X569150Y107700D01*
X575500Y101350D01*
X575500Y88650D02*
X569150Y82300D01*
X556450Y82300D01*
X550100Y88650D01*
X575500Y101350D02*
X581850Y107700D01*
X575500Y88650D02*
X581850Y82300D01*
X594550Y82300D01*
X518350Y107700D02*
X505650Y107700D01*
X518350Y107700D02*
X524700Y101350D01*
X524700Y88650D02*
X518350Y82300D01*
X524700Y101350D02*
X531050Y107700D01*
X543750Y107700D01*
X550100Y101350D01*
X550100Y88650D02*
X543750Y82300D01*
X531050Y82300D01*
X524700Y88650D01*
X499300Y88650D02*
X499300Y101350D01*
X505650Y107700D01*
X499300Y88650D02*
X505650Y82300D01*
X518350Y82300D01*
X683450Y107700D02*
X696150Y107700D01*
X702500Y101350D01*
X702500Y88650D01*
X696150Y82300D01*
X677100Y101350D02*
X683450Y107700D01*
X677100Y88650D02*
X683450Y82300D01*
X696150Y82300D01*
D13*
X500740Y109605D02*
X499935Y110410D01*
X500740Y109605D02*
X501545Y109605D01*
X502350Y110410D01*
X502350Y114435D01*
X501545Y114435D02*
X503155Y114435D01*
X505548Y114435D02*
X508768Y114435D01*
X505548Y114435D02*
X505548Y112020D01*
X507158Y112825D01*
X507963Y112825D01*
X508768Y112020D01*
X508768Y110410D01*
X507963Y109605D01*
X506353Y109605D01*
X505548Y110410D01*
D15*
X82300Y657050D02*
X82300Y669750D01*
X88650Y676100D01*
X101350Y676100D02*
X107700Y669750D01*
X82300Y631650D02*
X88650Y625300D01*
X82300Y631650D02*
X82300Y644350D01*
X88650Y650700D01*
X101350Y650700D02*
X107700Y644350D01*
X107700Y631650D01*
X101350Y625300D01*
X88650Y650700D02*
X82300Y657050D01*
X101350Y650700D02*
X107700Y657050D01*
X107700Y669750D01*
X82300Y593550D02*
X82300Y580850D01*
X82300Y593550D02*
X88650Y599900D01*
X101350Y599900D02*
X107700Y593550D01*
X88650Y599900D02*
X82300Y606250D01*
X82300Y618950D01*
X88650Y625300D01*
X101350Y625300D02*
X107700Y618950D01*
X107700Y606250D01*
X101350Y599900D01*
X82300Y555450D02*
X88650Y549100D01*
X82300Y555450D02*
X82300Y568150D01*
X88650Y574500D01*
X101350Y574500D02*
X107700Y568150D01*
X107700Y555450D01*
X101350Y549100D01*
X88650Y574500D02*
X82300Y580850D01*
X101350Y574500D02*
X107700Y580850D01*
X107700Y593550D01*
X82300Y517350D02*
X82300Y504650D01*
X82300Y517350D02*
X88650Y523700D01*
X101350Y523700D02*
X107700Y517350D01*
X88650Y523700D02*
X82300Y530050D01*
X82300Y542750D01*
X88650Y549100D01*
X101350Y549100D02*
X107700Y542750D01*
X107700Y530050D01*
X101350Y523700D01*
X101350Y498300D02*
X88650Y498300D01*
X82300Y504650D01*
X101350Y498300D02*
X107700Y504650D01*
X107700Y517350D01*
X82300Y682450D02*
X82300Y695150D01*
X88650Y701500D01*
X101350Y701500D01*
X107700Y695150D01*
X88650Y676100D02*
X82300Y682450D01*
X101350Y676100D02*
X107700Y682450D01*
X107700Y695150D01*
D13*
X112939Y496144D02*
X113744Y495339D01*
X114549Y495339D01*
X115354Y496144D01*
X115354Y500169D01*
X114549Y500169D02*
X116159Y500169D01*
X120162Y499364D02*
X121772Y500169D01*
X120162Y499364D02*
X118552Y497754D01*
X118552Y496144D01*
X119357Y495339D01*
X120967Y495339D01*
X121772Y496144D01*
X121772Y496949D01*
X120967Y497754D01*
X118552Y497754D01*
D15*
X656050Y1117700D02*
X668750Y1117700D01*
X675100Y1111350D01*
X675100Y1098650D02*
X668750Y1092300D01*
X630650Y1117700D02*
X624300Y1111350D01*
X630650Y1117700D02*
X643350Y1117700D01*
X649700Y1111350D01*
X649700Y1098650D02*
X643350Y1092300D01*
X630650Y1092300D01*
X624300Y1098650D01*
X649700Y1111350D02*
X656050Y1117700D01*
X649700Y1098650D02*
X656050Y1092300D01*
X668750Y1092300D01*
X592550Y1117700D02*
X579850Y1117700D01*
X592550Y1117700D02*
X598900Y1111350D01*
X598900Y1098650D02*
X592550Y1092300D01*
X598900Y1111350D02*
X605250Y1117700D01*
X617950Y1117700D01*
X624300Y1111350D01*
X624300Y1098650D02*
X617950Y1092300D01*
X605250Y1092300D01*
X598900Y1098650D01*
X554450Y1117700D02*
X548100Y1111350D01*
X554450Y1117700D02*
X567150Y1117700D01*
X573500Y1111350D01*
X573500Y1098650D02*
X567150Y1092300D01*
X554450Y1092300D01*
X548100Y1098650D01*
X573500Y1111350D02*
X579850Y1117700D01*
X573500Y1098650D02*
X579850Y1092300D01*
X592550Y1092300D01*
X516350Y1117700D02*
X503650Y1117700D01*
X516350Y1117700D02*
X522700Y1111350D01*
X522700Y1098650D02*
X516350Y1092300D01*
X522700Y1111350D02*
X529050Y1117700D01*
X541750Y1117700D01*
X548100Y1111350D01*
X548100Y1098650D02*
X541750Y1092300D01*
X529050Y1092300D01*
X522700Y1098650D01*
X497300Y1098650D02*
X497300Y1111350D01*
X503650Y1117700D01*
X497300Y1098650D02*
X503650Y1092300D01*
X516350Y1092300D01*
X681450Y1117700D02*
X694150Y1117700D01*
X700500Y1111350D01*
X700500Y1098650D01*
X694150Y1092300D01*
X675100Y1111350D02*
X681450Y1117700D01*
X675100Y1098650D02*
X681450Y1092300D01*
X694150Y1092300D01*
D13*
X496240Y1079605D02*
X495435Y1080410D01*
X496240Y1079605D02*
X497045Y1079605D01*
X497850Y1080410D01*
X497850Y1084435D01*
X497045Y1084435D02*
X498655Y1084435D01*
X501048Y1084435D02*
X504268Y1084435D01*
X504268Y1083630D01*
X501048Y1080410D01*
X501048Y1079605D01*
D10*
X1046703Y731812D02*
X1047701Y732810D01*
X1046703Y731812D02*
X1046703Y729815D01*
X1047701Y728817D01*
X1051694Y728817D01*
X1052692Y729815D01*
X1052692Y731812D01*
X1051694Y732810D01*
X1052692Y735263D02*
X1052692Y739255D01*
X1052692Y735263D02*
X1048699Y739255D01*
X1047701Y739255D01*
X1046703Y738257D01*
X1046703Y736261D01*
X1047701Y735263D01*
X923562Y289444D02*
X923562Y285452D01*
X923562Y289444D02*
X924561Y290443D01*
X926557Y290443D01*
X927555Y289444D01*
X927555Y285452D01*
X926557Y284453D01*
X924561Y284453D01*
X923562Y285452D01*
X925559Y286450D02*
X927555Y284453D01*
X930008Y288446D02*
X932004Y290443D01*
X932004Y284453D01*
X930008Y284453D02*
X934001Y284453D01*
X911658Y227847D02*
X911658Y221858D01*
X911658Y227847D02*
X914653Y227847D01*
X915651Y226849D01*
X915651Y224853D01*
X914653Y223854D01*
X911658Y223854D01*
X913654Y223854D02*
X915651Y221858D01*
X918104Y225851D02*
X920100Y227847D01*
X920100Y221858D01*
X918104Y221858D02*
X922096Y221858D01*
X924549Y222856D02*
X924549Y226849D01*
X925547Y227847D01*
X927544Y227847D01*
X928542Y226849D01*
X928542Y222856D01*
X927544Y221858D01*
X925547Y221858D01*
X924549Y222856D01*
X928542Y226849D01*
X976658Y224358D02*
X976658Y230347D01*
X979653Y230347D01*
X980651Y229349D01*
X980651Y227353D01*
X979653Y226354D01*
X976658Y226354D01*
X978654Y226354D02*
X980651Y224358D01*
X983104Y228351D02*
X985100Y230347D01*
X985100Y224358D01*
X983104Y224358D02*
X987096Y224358D01*
X989549Y228351D02*
X991545Y230347D01*
X991545Y224358D01*
X989549Y224358D02*
X993542Y224358D01*
X857522Y252158D02*
X857522Y258147D01*
X860516Y258147D01*
X861514Y257149D01*
X861514Y255153D01*
X860516Y254154D01*
X857522Y254154D01*
X859518Y254154D02*
X861514Y252158D01*
X863967Y256151D02*
X865963Y258147D01*
X865963Y252158D01*
X863967Y252158D02*
X867960Y252158D01*
X870413Y252158D02*
X874405Y252158D01*
X870413Y252158D02*
X874405Y256151D01*
X874405Y257149D01*
X873407Y258147D01*
X871411Y258147D01*
X870413Y257149D01*
M02*
