G04 EAGLE Gerber RS-274X export*
G75*
%MOMM*%
%FSLAX34Y34*%
%LPD*%
%INSilkscreen Bottom*%
%IPPOS*%
%AMOC8*
5,1,8,0,0,1.08239X$1,22.5*%
G01*
%ADD10C,0.101600*%
%ADD11R,0.152400X0.076200*%
%ADD12R,0.228600X0.076200*%
%ADD13R,0.304800X0.076200*%
%ADD14R,0.381000X0.076200*%
%ADD15R,0.457200X0.076200*%
%ADD16R,0.533400X0.076200*%
%ADD17R,0.609600X0.076200*%
%ADD18R,0.685800X0.076200*%
%ADD19R,0.762000X0.076200*%
%ADD20R,0.838200X0.076200*%
%ADD21R,0.914400X0.076200*%
%ADD22R,0.990600X0.076200*%
%ADD23R,1.066800X0.076200*%
%ADD24R,1.143000X0.076200*%
%ADD25R,1.219200X0.076200*%
%ADD26R,1.295400X0.076200*%
%ADD27R,1.371600X0.076200*%
%ADD28R,1.447800X0.076200*%
%ADD29R,1.524000X0.076200*%
%ADD30R,1.600200X0.076200*%
%ADD31R,1.676400X0.076200*%
%ADD32R,1.752600X0.076200*%
%ADD33R,1.828800X0.076200*%
%ADD34R,1.905000X0.076200*%
%ADD35R,1.981200X0.076200*%
%ADD36R,2.057400X0.076200*%
%ADD37R,2.133600X0.076200*%
%ADD38R,2.209800X0.076200*%
%ADD39R,2.286000X0.076200*%
%ADD40R,2.362200X0.076200*%
%ADD41R,2.438400X0.076200*%
%ADD42R,2.514600X0.076200*%
%ADD43R,2.590800X0.076200*%
%ADD44R,2.667000X0.076200*%
%ADD45R,2.743200X0.076200*%
%ADD46R,2.819400X0.076200*%
%ADD47R,2.895600X0.076200*%
%ADD48R,2.971800X0.076200*%
%ADD49R,3.048000X0.076200*%
%ADD50R,3.124200X0.076200*%
%ADD51R,3.200400X0.076200*%
%ADD52R,3.276600X0.076200*%
%ADD53R,3.352800X0.076200*%
%ADD54R,3.429000X0.076200*%
%ADD55R,3.505200X0.076200*%
%ADD56R,3.581400X0.076200*%
%ADD57R,3.657600X0.076200*%
%ADD58R,3.733800X0.076200*%
%ADD59R,3.810000X0.076200*%
%ADD60R,3.886200X0.076200*%
%ADD61R,3.962400X0.076200*%
%ADD62R,4.038600X0.076200*%
%ADD63R,4.114800X0.076200*%
%ADD64R,4.191000X0.076200*%
%ADD65R,4.267200X0.076200*%
%ADD66R,4.343400X0.076200*%
%ADD67R,4.419600X0.076200*%
%ADD68R,4.495800X0.076200*%
%ADD69R,4.572000X0.076200*%
%ADD70R,4.648200X0.076200*%
%ADD71R,4.724400X0.076200*%
%ADD72R,4.800600X0.076200*%
%ADD73R,4.876800X0.076200*%
%ADD74R,4.953000X0.076200*%
%ADD75R,5.029200X0.076200*%
%ADD76R,5.105400X0.076200*%
%ADD77R,5.181600X0.076200*%
%ADD78R,5.257800X0.076200*%
%ADD79R,5.334000X0.076200*%
%ADD80R,5.410200X0.076200*%
%ADD81R,5.486400X0.076200*%
%ADD82R,5.562600X0.076200*%
%ADD83R,5.638800X0.076200*%
%ADD84R,5.715000X0.076200*%
%ADD85R,5.791200X0.076200*%
%ADD86R,5.867400X0.076200*%
%ADD87R,5.943600X0.076200*%
%ADD88R,6.019800X0.076200*%
%ADD89R,6.096000X0.076200*%
%ADD90R,6.172200X0.076200*%
%ADD91R,6.248400X0.076200*%
%ADD92R,6.324600X0.076200*%
%ADD93R,6.400800X0.076200*%
%ADD94R,6.477000X0.076200*%
%ADD95R,6.553200X0.076200*%
%ADD96R,6.629400X0.076200*%
%ADD97R,6.705600X0.076200*%
%ADD98R,6.781800X0.076200*%
%ADD99R,6.858000X0.076200*%
%ADD100R,6.934200X0.076200*%
%ADD101R,7.010400X0.076200*%
%ADD102R,7.086600X0.076200*%
%ADD103R,7.162800X0.076200*%
%ADD104R,7.239000X0.076200*%
%ADD105R,7.315200X0.076200*%
%ADD106R,7.391400X0.076200*%
%ADD107R,7.467600X0.076200*%
%ADD108R,7.543800X0.076200*%
%ADD109R,7.620000X0.076200*%
%ADD110R,7.696200X0.076200*%
%ADD111R,7.772400X0.076200*%
%ADD112R,7.848600X0.076200*%
%ADD113R,7.924800X0.076200*%
%ADD114R,8.001000X0.076200*%
%ADD115R,8.077200X0.076200*%
%ADD116R,8.153400X0.076200*%
%ADD117R,8.229600X0.076200*%
%ADD118R,8.305800X0.076200*%
%ADD119R,8.382000X0.076200*%
%ADD120R,8.458200X0.076200*%
%ADD121R,8.534400X0.076200*%
%ADD122R,8.610600X0.076200*%
%ADD123R,8.686800X0.076200*%
%ADD124R,8.763000X0.076200*%
%ADD125R,8.839200X0.076200*%
%ADD126R,8.915400X0.076200*%
%ADD127R,8.991600X0.076200*%
%ADD128R,9.067800X0.076200*%
%ADD129R,9.144000X0.076200*%
%ADD130R,9.220200X0.076200*%
%ADD131R,9.296400X0.076200*%
%ADD132R,9.372600X0.076200*%
%ADD133R,9.448800X0.076200*%
%ADD134R,9.525000X0.076200*%
%ADD135R,9.601200X0.076200*%
%ADD136R,9.677400X0.076200*%
%ADD137R,9.753600X0.076200*%
%ADD138R,9.829800X0.076200*%
%ADD139R,9.906000X0.076200*%
%ADD140R,9.982200X0.076200*%
%ADD141R,10.058400X0.076200*%
%ADD142R,10.134600X0.076200*%
%ADD143R,10.210800X0.076200*%
%ADD144R,10.287000X0.076200*%
%ADD145R,10.363200X0.076200*%
%ADD146R,10.439400X0.076200*%
%ADD147R,10.515600X0.076200*%
%ADD148R,10.591800X0.076200*%
%ADD149R,10.668000X0.076200*%
%ADD150R,10.744200X0.076200*%
%ADD151R,10.820400X0.076200*%
%ADD152R,10.896600X0.076200*%
%ADD153R,10.972800X0.076200*%
%ADD154R,11.049000X0.076200*%
%ADD155R,11.125200X0.076200*%
%ADD156R,11.201400X0.076200*%
%ADD157R,11.277600X0.076200*%
%ADD158R,11.353800X0.076200*%
%ADD159R,11.430000X0.076200*%
%ADD160R,11.506200X0.076200*%
%ADD161R,11.582400X0.076200*%
%ADD162R,11.658600X0.076200*%
%ADD163R,11.734800X0.076200*%
%ADD164R,11.811000X0.076200*%
%ADD165R,11.887200X0.076200*%
%ADD166R,11.963400X0.076200*%
%ADD167R,12.039600X0.076200*%
%ADD168R,12.115800X0.076200*%
%ADD169R,12.192000X0.076200*%
%ADD170R,12.268200X0.076200*%
%ADD171R,12.344400X0.076200*%
%ADD172R,12.420600X0.076200*%
%ADD173R,12.496800X0.076200*%
%ADD174R,12.573000X0.076200*%
%ADD175R,12.649200X0.076200*%
%ADD176R,12.725400X0.076200*%
%ADD177R,12.801600X0.076200*%
%ADD178R,12.877800X0.076200*%
%ADD179R,12.954000X0.076200*%
%ADD180R,13.030200X0.076200*%
%ADD181R,13.106400X0.076200*%
%ADD182R,13.182600X0.076200*%
%ADD183R,13.258800X0.076200*%
%ADD184R,13.335000X0.076200*%
%ADD185R,13.411200X0.076200*%
%ADD186R,13.487400X0.076200*%
%ADD187R,13.563600X0.076200*%
%ADD188R,13.639800X0.076200*%
%ADD189R,13.716000X0.076200*%
%ADD190R,13.792200X0.076200*%
%ADD191R,13.868400X0.076200*%
%ADD192R,13.944600X0.076200*%
%ADD193R,14.020800X0.076200*%
%ADD194R,14.097000X0.076200*%
%ADD195R,14.173200X0.076200*%
%ADD196R,14.249400X0.076200*%
%ADD197R,14.325600X0.076200*%
%ADD198R,14.401800X0.076200*%
%ADD199R,14.478000X0.076200*%
%ADD200R,14.554200X0.076200*%
%ADD201R,14.630400X0.076200*%
%ADD202R,14.706600X0.076200*%
%ADD203R,14.782800X0.076200*%
%ADD204R,14.859000X0.076200*%
%ADD205R,14.935200X0.076200*%
%ADD206R,15.011400X0.076200*%
%ADD207R,15.087600X0.076200*%
%ADD208R,15.163800X0.076200*%
%ADD209R,15.240000X0.076200*%
%ADD210R,15.316200X0.076200*%
%ADD211R,15.392400X0.076200*%
%ADD212R,15.468600X0.076200*%
%ADD213R,15.544800X0.076200*%
%ADD214R,15.621000X0.076200*%
%ADD215R,15.697200X0.076200*%
%ADD216R,15.773400X0.076200*%
%ADD217R,15.849600X0.076200*%
%ADD218R,15.925800X0.076200*%
%ADD219R,16.002000X0.076200*%
%ADD220R,16.078200X0.076200*%
%ADD221R,16.154400X0.076200*%
%ADD222R,16.230600X0.076200*%
%ADD223R,16.306800X0.076200*%
%ADD224R,16.383000X0.076200*%
%ADD225R,16.459200X0.076200*%
%ADD226R,16.535400X0.076200*%
%ADD227R,16.611600X0.076200*%
%ADD228R,16.687800X0.076200*%
%ADD229R,16.764000X0.076200*%
%ADD230R,16.840200X0.076200*%
%ADD231R,16.916400X0.076200*%
%ADD232R,16.992600X0.076200*%
%ADD233R,17.068800X0.076200*%
%ADD234R,17.145000X0.076200*%
%ADD235R,17.221200X0.076200*%
%ADD236R,17.297400X0.076200*%
%ADD237R,17.373600X0.076200*%
%ADD238R,17.449800X0.076200*%
%ADD239R,17.526000X0.076200*%
%ADD240R,17.602200X0.076200*%
%ADD241R,17.678400X0.076200*%
%ADD242R,17.754600X0.076200*%
%ADD243R,17.830800X0.076200*%
%ADD244R,17.907000X0.076200*%
%ADD245R,17.983200X0.076200*%
%ADD246R,18.059400X0.076200*%
%ADD247R,18.135600X0.076200*%
%ADD248R,18.211800X0.076200*%
%ADD249R,18.288000X0.076200*%
%ADD250R,18.364200X0.076200*%
%ADD251R,18.440400X0.076200*%
%ADD252R,18.516600X0.076200*%
%ADD253R,18.592800X0.076200*%
%ADD254R,18.669000X0.076200*%
%ADD255R,18.745200X0.076200*%
%ADD256R,18.821400X0.076200*%
%ADD257R,18.897600X0.076200*%
%ADD258R,18.973800X0.076200*%
%ADD259R,19.050000X0.076200*%
%ADD260R,19.126200X0.076200*%
%ADD261R,19.202400X0.076200*%
%ADD262R,19.278600X0.076200*%
%ADD263R,19.354800X0.076200*%
%ADD264R,19.431000X0.076200*%
%ADD265R,19.507200X0.076200*%
%ADD266R,19.583400X0.076200*%
%ADD267R,19.659600X0.076200*%
%ADD268R,19.735800X0.076200*%
%ADD269R,19.812000X0.076200*%
%ADD270R,19.888200X0.076200*%
%ADD271R,19.964400X0.076200*%
%ADD272R,20.040600X0.076200*%
%ADD273R,20.116800X0.076200*%
%ADD274R,20.193000X0.076200*%
%ADD275R,20.269200X0.076200*%
%ADD276R,20.345400X0.076200*%
%ADD277R,20.421600X0.076200*%
%ADD278R,20.574000X0.076200*%
%ADD279R,20.726400X0.076200*%
%ADD280R,20.878800X0.076200*%
%ADD281R,21.031200X0.076200*%
%ADD282R,21.183600X0.076200*%
%ADD283R,21.336000X0.076200*%
%ADD284R,21.488400X0.076200*%
%ADD285R,21.640800X0.076200*%
%ADD286R,21.793200X0.076200*%
%ADD287R,21.945600X0.076200*%
%ADD288R,22.098000X0.076200*%
%ADD289R,22.250400X0.076200*%
%ADD290R,22.402800X0.076200*%
%ADD291R,22.555200X0.076200*%
%ADD292R,22.707600X0.076200*%
%ADD293R,22.860000X0.076200*%
%ADD294R,23.012400X0.076200*%
%ADD295R,23.164800X0.076200*%
%ADD296R,23.317200X0.076200*%
%ADD297R,23.469600X0.076200*%
%ADD298R,23.622000X0.076200*%
%ADD299R,23.774400X0.076200*%
%ADD300R,23.926800X0.076200*%
%ADD301R,24.079200X0.076200*%
%ADD302R,24.231600X0.076200*%
%ADD303R,24.384000X0.076200*%
%ADD304R,24.536400X0.076200*%
%ADD305R,24.688800X0.076200*%
%ADD306R,24.841200X0.076200*%
%ADD307R,24.993600X0.076200*%
%ADD308R,25.146000X0.076200*%
%ADD309R,25.298400X0.076200*%
%ADD310R,25.450800X0.076200*%
%ADD311R,25.603200X0.076200*%
%ADD312R,25.755600X0.076200*%
%ADD313R,25.908000X0.076200*%
%ADD314R,26.060400X0.076200*%
%ADD315R,26.212800X0.076200*%
%ADD316R,26.365200X0.076200*%
%ADD317R,26.517600X0.076200*%
%ADD318R,26.670000X0.076200*%
%ADD319R,26.822400X0.076200*%
%ADD320R,26.974800X0.076200*%
%ADD321R,27.127200X0.076200*%
%ADD322R,27.279600X0.076200*%
%ADD323R,27.432000X0.076200*%
%ADD324R,27.584400X0.076200*%
%ADD325R,27.736800X0.076200*%
%ADD326R,27.889200X0.076200*%
%ADD327R,28.041600X0.076200*%
%ADD328R,28.194000X0.076200*%
%ADD329R,28.346400X0.076200*%
%ADD330R,28.498800X0.076200*%
%ADD331R,28.651200X0.076200*%
%ADD332R,0.076200X0.076200*%
%ADD333C,0.152400*%
%ADD334C,0.100000*%
%ADD335C,0.076200*%
%ADD336C,0.203200*%


D10*
X578126Y1120508D02*
X578126Y1126497D01*
X576129Y1124501D01*
X574133Y1126497D01*
X574133Y1120508D01*
X571680Y1120508D02*
X569684Y1120508D01*
X570682Y1120508D02*
X570682Y1126497D01*
X571680Y1126497D02*
X569684Y1126497D01*
X564389Y1126497D02*
X563390Y1125499D01*
X564389Y1126497D02*
X566385Y1126497D01*
X567383Y1125499D01*
X567383Y1124501D01*
X566385Y1123503D01*
X564389Y1123503D01*
X563390Y1122504D01*
X563390Y1121506D01*
X564389Y1120508D01*
X566385Y1120508D01*
X567383Y1121506D01*
X559939Y1126497D02*
X557943Y1126497D01*
X559939Y1126497D02*
X560938Y1125499D01*
X560938Y1121506D01*
X559939Y1120508D01*
X557943Y1120508D01*
X556945Y1121506D01*
X556945Y1125499D01*
X557943Y1126497D01*
X576992Y1187504D02*
X576992Y1191497D01*
X576992Y1187504D02*
X574996Y1185508D01*
X572999Y1187504D01*
X572999Y1191497D01*
X567552Y1191497D02*
X566554Y1190499D01*
X567552Y1191497D02*
X569548Y1191497D01*
X570547Y1190499D01*
X570547Y1186506D01*
X569548Y1185508D01*
X567552Y1185508D01*
X566554Y1186506D01*
X561106Y1191497D02*
X560108Y1190499D01*
X561106Y1191497D02*
X563103Y1191497D01*
X564101Y1190499D01*
X564101Y1186506D01*
X563103Y1185508D01*
X561106Y1185508D01*
X560108Y1186506D01*
X606992Y1185508D02*
X606992Y1191497D01*
X604996Y1189501D01*
X602999Y1191497D01*
X602999Y1185508D01*
X599548Y1191497D02*
X597552Y1191497D01*
X599548Y1191497D02*
X600547Y1190499D01*
X600547Y1186506D01*
X599548Y1185508D01*
X597552Y1185508D01*
X596554Y1186506D01*
X596554Y1190499D01*
X597552Y1191497D01*
X591106Y1191497D02*
X590108Y1190499D01*
X591106Y1191497D02*
X593103Y1191497D01*
X594101Y1190499D01*
X594101Y1189501D01*
X593103Y1188503D01*
X591106Y1188503D01*
X590108Y1187504D01*
X590108Y1186506D01*
X591106Y1185508D01*
X593103Y1185508D01*
X594101Y1186506D01*
X587656Y1185508D02*
X585659Y1185508D01*
X586657Y1185508D02*
X586657Y1191497D01*
X585659Y1191497D02*
X587656Y1191497D01*
X627999Y1190499D02*
X628997Y1191497D01*
X630994Y1191497D01*
X631992Y1190499D01*
X631992Y1186506D01*
X630994Y1185508D01*
X628997Y1185508D01*
X627999Y1186506D01*
X627999Y1188503D01*
X629996Y1188503D01*
X625547Y1191497D02*
X625547Y1185508D01*
X621554Y1185508D02*
X625547Y1191497D01*
X621554Y1191497D02*
X621554Y1185508D01*
X619101Y1185508D02*
X619101Y1191497D01*
X619101Y1185508D02*
X616106Y1185508D01*
X615108Y1186506D01*
X615108Y1190499D01*
X616106Y1191497D01*
X619101Y1191497D01*
X603334Y1126497D02*
X602336Y1125499D01*
X603334Y1126497D02*
X605330Y1126497D01*
X606329Y1125499D01*
X606329Y1124501D01*
X605330Y1123503D01*
X603334Y1123503D01*
X602336Y1122504D01*
X602336Y1121506D01*
X603334Y1120508D01*
X605330Y1120508D01*
X606329Y1121506D01*
X596888Y1126497D02*
X595890Y1125499D01*
X596888Y1126497D02*
X598885Y1126497D01*
X599883Y1125499D01*
X599883Y1121506D01*
X598885Y1120508D01*
X596888Y1120508D01*
X595890Y1121506D01*
X593438Y1120508D02*
X593438Y1126497D01*
X593438Y1122504D02*
X589445Y1126497D01*
X592439Y1123503D02*
X589445Y1120508D01*
X631329Y1120508D02*
X631329Y1126497D01*
X628334Y1126497D01*
X627336Y1125499D01*
X627336Y1123503D01*
X628334Y1122504D01*
X631329Y1122504D01*
X629332Y1122504D02*
X627336Y1120508D01*
X621888Y1126497D02*
X620890Y1125499D01*
X621888Y1126497D02*
X623885Y1126497D01*
X624883Y1125499D01*
X624883Y1124501D01*
X623885Y1123503D01*
X621888Y1123503D01*
X620890Y1122504D01*
X620890Y1121506D01*
X621888Y1120508D01*
X623885Y1120508D01*
X624883Y1121506D01*
X616441Y1120508D02*
X616441Y1126497D01*
X614445Y1126497D02*
X618438Y1126497D01*
D11*
X572311Y330000D03*
X624127Y330000D03*
D12*
X571930Y330762D03*
X624508Y330762D03*
D13*
X571549Y331524D03*
X624889Y331524D03*
D14*
X571168Y332286D03*
X625270Y332286D03*
D15*
X570787Y333048D03*
X625651Y333048D03*
D16*
X570406Y333810D03*
X626032Y333810D03*
D17*
X570025Y334572D03*
X626413Y334572D03*
D18*
X569644Y335334D03*
X626794Y335334D03*
D19*
X569263Y336096D03*
X627175Y336096D03*
D20*
X568882Y336858D03*
X627556Y336858D03*
D21*
X568501Y337620D03*
X627937Y337620D03*
D22*
X568120Y338382D03*
X628318Y338382D03*
D23*
X567739Y339144D03*
X628699Y339144D03*
D24*
X567358Y339906D03*
X629080Y339906D03*
D25*
X566977Y340668D03*
X629461Y340668D03*
D26*
X566596Y341430D03*
X629842Y341430D03*
D27*
X566215Y342192D03*
X630223Y342192D03*
D28*
X565834Y342954D03*
X630604Y342954D03*
D29*
X565453Y343716D03*
X630985Y343716D03*
D30*
X565072Y344478D03*
X631366Y344478D03*
D31*
X564691Y345240D03*
X631747Y345240D03*
D32*
X564310Y346002D03*
X632128Y346002D03*
D33*
X563929Y346764D03*
X632509Y346764D03*
D34*
X563548Y347526D03*
X632890Y347526D03*
D35*
X563167Y348288D03*
X633271Y348288D03*
D36*
X562786Y349050D03*
X633652Y349050D03*
D37*
X562405Y349812D03*
X634033Y349812D03*
D38*
X562024Y350574D03*
X634414Y350574D03*
D39*
X561643Y351336D03*
X634795Y351336D03*
D40*
X561262Y352098D03*
X635176Y352098D03*
D41*
X560881Y352860D03*
X635557Y352860D03*
D42*
X560500Y353622D03*
X635938Y353622D03*
D43*
X560119Y354384D03*
X636319Y354384D03*
D44*
X559738Y355146D03*
X636700Y355146D03*
D45*
X559357Y355908D03*
X637081Y355908D03*
D46*
X558976Y356670D03*
X637462Y356670D03*
D47*
X558595Y357432D03*
X637843Y357432D03*
D48*
X558214Y358194D03*
X638224Y358194D03*
D49*
X557833Y358956D03*
X638605Y358956D03*
D50*
X557452Y359718D03*
X638986Y359718D03*
D51*
X557071Y360480D03*
X639367Y360480D03*
D52*
X556690Y361242D03*
X639748Y361242D03*
D53*
X556309Y362004D03*
X640129Y362004D03*
D54*
X555928Y362766D03*
X640510Y362766D03*
D55*
X555547Y363528D03*
X640891Y363528D03*
D56*
X555166Y364290D03*
X641272Y364290D03*
D57*
X554785Y365052D03*
X641653Y365052D03*
D58*
X554404Y365814D03*
X642034Y365814D03*
D59*
X554023Y366576D03*
X642415Y366576D03*
D60*
X553642Y367338D03*
X642796Y367338D03*
D61*
X553261Y368100D03*
X643177Y368100D03*
D62*
X552880Y368862D03*
X643558Y368862D03*
D63*
X552499Y369624D03*
X643939Y369624D03*
D64*
X552118Y370386D03*
X644320Y370386D03*
D65*
X551737Y371148D03*
X644701Y371148D03*
D66*
X551356Y371910D03*
X645082Y371910D03*
D67*
X550975Y372672D03*
X645463Y372672D03*
D68*
X550594Y373434D03*
X645844Y373434D03*
D69*
X550213Y374196D03*
X646225Y374196D03*
D70*
X549832Y374958D03*
X646606Y374958D03*
D71*
X549451Y375720D03*
X646987Y375720D03*
D72*
X549070Y376482D03*
X647368Y376482D03*
D73*
X548689Y377244D03*
X647749Y377244D03*
D74*
X548308Y378006D03*
X648130Y378006D03*
D75*
X547927Y378768D03*
X648511Y378768D03*
D76*
X547546Y379530D03*
X648892Y379530D03*
D77*
X547165Y380292D03*
X649273Y380292D03*
D78*
X546784Y381054D03*
X649654Y381054D03*
D79*
X546403Y381816D03*
X650035Y381816D03*
D80*
X546022Y382578D03*
X650416Y382578D03*
D81*
X545641Y383340D03*
X650797Y383340D03*
D82*
X545260Y384102D03*
X651178Y384102D03*
D83*
X544879Y384864D03*
X651559Y384864D03*
D84*
X544498Y385626D03*
X651940Y385626D03*
D85*
X544117Y386388D03*
X652321Y386388D03*
D86*
X543736Y387150D03*
X652702Y387150D03*
D87*
X543355Y387912D03*
X653083Y387912D03*
D88*
X542974Y388674D03*
X653464Y388674D03*
D89*
X542593Y389436D03*
X653845Y389436D03*
D90*
X542212Y390198D03*
X654226Y390198D03*
D91*
X541831Y390960D03*
X654607Y390960D03*
D92*
X541450Y391722D03*
X654988Y391722D03*
D93*
X541069Y392484D03*
X655369Y392484D03*
D94*
X540688Y393246D03*
X655750Y393246D03*
D95*
X540307Y394008D03*
X656131Y394008D03*
D96*
X539926Y394770D03*
X656512Y394770D03*
D97*
X539545Y395532D03*
X656893Y395532D03*
D98*
X539164Y396294D03*
X657274Y396294D03*
D99*
X538783Y397056D03*
X657655Y397056D03*
D100*
X538402Y397818D03*
X658036Y397818D03*
D101*
X538021Y398580D03*
X658417Y398580D03*
D102*
X537640Y399342D03*
X658798Y399342D03*
D103*
X537259Y400104D03*
X659179Y400104D03*
D104*
X536878Y400866D03*
X659560Y400866D03*
D105*
X536497Y401628D03*
X659941Y401628D03*
D106*
X536116Y402390D03*
X660322Y402390D03*
D107*
X535735Y403152D03*
X660703Y403152D03*
D108*
X535354Y403914D03*
X661084Y403914D03*
D109*
X534973Y404676D03*
X661465Y404676D03*
D110*
X534592Y405438D03*
X661846Y405438D03*
D111*
X534211Y406200D03*
X662227Y406200D03*
D112*
X533830Y406962D03*
X662608Y406962D03*
D113*
X533449Y407724D03*
X662989Y407724D03*
D114*
X533068Y408486D03*
X663370Y408486D03*
D115*
X532687Y409248D03*
X663751Y409248D03*
D116*
X532306Y410010D03*
X664132Y410010D03*
D117*
X531925Y410772D03*
X664513Y410772D03*
D118*
X531544Y411534D03*
X664894Y411534D03*
D119*
X531163Y412296D03*
X665275Y412296D03*
D120*
X530782Y413058D03*
X665656Y413058D03*
D121*
X530401Y413820D03*
X666037Y413820D03*
D122*
X530020Y414582D03*
X666418Y414582D03*
D123*
X529639Y415344D03*
X666799Y415344D03*
D124*
X529258Y416106D03*
X667180Y416106D03*
D125*
X528877Y416868D03*
X667561Y416868D03*
D126*
X528496Y417630D03*
X667942Y417630D03*
D127*
X528115Y418392D03*
X668323Y418392D03*
D128*
X527734Y419154D03*
X668704Y419154D03*
D129*
X527353Y419916D03*
X669085Y419916D03*
D130*
X526972Y420678D03*
X669466Y420678D03*
D131*
X526591Y421440D03*
X669847Y421440D03*
D132*
X526210Y422202D03*
X670228Y422202D03*
D133*
X525829Y422964D03*
X670609Y422964D03*
D134*
X525448Y423726D03*
X670990Y423726D03*
D135*
X525067Y424488D03*
X671371Y424488D03*
D136*
X524686Y425250D03*
X671752Y425250D03*
D137*
X524305Y426012D03*
X672133Y426012D03*
D138*
X523924Y426774D03*
X672514Y426774D03*
D139*
X523543Y427536D03*
X672895Y427536D03*
D140*
X523162Y428298D03*
X673276Y428298D03*
D141*
X522781Y429060D03*
X673657Y429060D03*
D142*
X522400Y429822D03*
X674038Y429822D03*
D143*
X522019Y430584D03*
X674419Y430584D03*
D144*
X521638Y431346D03*
X674800Y431346D03*
D145*
X521257Y432108D03*
X675181Y432108D03*
D146*
X520876Y432870D03*
X675562Y432870D03*
D147*
X520495Y433632D03*
X675943Y433632D03*
D148*
X520114Y434394D03*
X676324Y434394D03*
D149*
X519733Y435156D03*
X676705Y435156D03*
D150*
X519352Y435918D03*
X677086Y435918D03*
D151*
X518971Y436680D03*
X677467Y436680D03*
D152*
X518590Y437442D03*
X677848Y437442D03*
D153*
X518209Y438204D03*
X678229Y438204D03*
D154*
X517828Y438966D03*
X678610Y438966D03*
D155*
X517447Y439728D03*
X678991Y439728D03*
D156*
X517066Y440490D03*
X679372Y440490D03*
D157*
X516685Y441252D03*
X679753Y441252D03*
D158*
X516304Y442014D03*
X680134Y442014D03*
D159*
X515923Y442776D03*
X680515Y442776D03*
D160*
X515542Y443538D03*
X680896Y443538D03*
D161*
X515161Y444300D03*
X681277Y444300D03*
D162*
X514780Y445062D03*
X681658Y445062D03*
D163*
X514399Y445824D03*
X682039Y445824D03*
D164*
X514018Y446586D03*
X682420Y446586D03*
D165*
X513637Y447348D03*
X682801Y447348D03*
D166*
X513256Y448110D03*
X683182Y448110D03*
D167*
X512875Y448872D03*
X683563Y448872D03*
D168*
X512494Y449634D03*
X683944Y449634D03*
D169*
X512113Y450396D03*
X684325Y450396D03*
D170*
X511732Y451158D03*
X684706Y451158D03*
D171*
X511351Y451920D03*
X685087Y451920D03*
D172*
X510970Y452682D03*
X685468Y452682D03*
D173*
X510589Y453444D03*
X685849Y453444D03*
D174*
X510208Y454206D03*
X686230Y454206D03*
D175*
X509827Y454968D03*
X686611Y454968D03*
D176*
X509446Y455730D03*
X686992Y455730D03*
D177*
X509065Y456492D03*
X687373Y456492D03*
D178*
X508684Y457254D03*
X687754Y457254D03*
D179*
X508303Y458016D03*
X688135Y458016D03*
D180*
X507922Y458778D03*
X688516Y458778D03*
D181*
X507541Y459540D03*
X688897Y459540D03*
D182*
X507160Y460302D03*
X689278Y460302D03*
D183*
X506779Y461064D03*
X689659Y461064D03*
D184*
X506398Y461826D03*
X690040Y461826D03*
D185*
X506017Y462588D03*
X690421Y462588D03*
D186*
X505636Y463350D03*
X690802Y463350D03*
D187*
X505255Y464112D03*
X691183Y464112D03*
D188*
X504874Y464874D03*
X691564Y464874D03*
D189*
X504493Y465636D03*
X691945Y465636D03*
D190*
X504112Y466398D03*
X692326Y466398D03*
D191*
X503731Y467160D03*
X692707Y467160D03*
D192*
X503350Y467922D03*
X693088Y467922D03*
D193*
X502969Y468684D03*
X693469Y468684D03*
D194*
X502588Y469446D03*
X693850Y469446D03*
D195*
X502207Y470208D03*
X694231Y470208D03*
D196*
X501826Y470970D03*
X694612Y470970D03*
D197*
X501445Y471732D03*
X694993Y471732D03*
D198*
X501064Y472494D03*
X695374Y472494D03*
D199*
X500683Y473256D03*
X695755Y473256D03*
D200*
X500302Y474018D03*
X696136Y474018D03*
D201*
X499921Y474780D03*
X696517Y474780D03*
D202*
X499540Y475542D03*
X696898Y475542D03*
D203*
X499159Y476304D03*
X697279Y476304D03*
D204*
X498778Y477066D03*
X697660Y477066D03*
D205*
X498397Y477828D03*
X698041Y477828D03*
D206*
X498016Y478590D03*
X698422Y478590D03*
D207*
X497635Y479352D03*
X698803Y479352D03*
D208*
X497254Y480114D03*
X699184Y480114D03*
D209*
X496873Y480876D03*
X699565Y480876D03*
D210*
X496492Y481638D03*
X699946Y481638D03*
D211*
X496111Y482400D03*
X700327Y482400D03*
D212*
X495730Y483162D03*
X700708Y483162D03*
D213*
X495349Y483924D03*
X701089Y483924D03*
D214*
X494968Y484686D03*
X701470Y484686D03*
D215*
X494587Y485448D03*
X701851Y485448D03*
D216*
X494206Y486210D03*
X702232Y486210D03*
D217*
X493825Y486972D03*
X702613Y486972D03*
D218*
X493444Y487734D03*
X702994Y487734D03*
D219*
X493063Y488496D03*
X703375Y488496D03*
D220*
X492682Y489258D03*
X703756Y489258D03*
D221*
X492301Y490020D03*
X704137Y490020D03*
D222*
X491920Y490782D03*
X704518Y490782D03*
D223*
X491539Y491544D03*
X704899Y491544D03*
D224*
X491158Y492306D03*
X705280Y492306D03*
D225*
X490777Y493068D03*
X705661Y493068D03*
D226*
X490396Y493830D03*
X706042Y493830D03*
D227*
X490015Y494592D03*
X706423Y494592D03*
D228*
X489634Y495354D03*
X706804Y495354D03*
D229*
X489253Y496116D03*
X707185Y496116D03*
D230*
X488872Y496878D03*
X707566Y496878D03*
D231*
X488491Y497640D03*
X707947Y497640D03*
D232*
X488110Y498402D03*
X708328Y498402D03*
D233*
X487729Y499164D03*
X708709Y499164D03*
D234*
X487348Y499926D03*
X709090Y499926D03*
D235*
X486967Y500688D03*
X709471Y500688D03*
D236*
X486586Y501450D03*
X709852Y501450D03*
D237*
X486205Y502212D03*
X710233Y502212D03*
D238*
X485824Y502974D03*
X710614Y502974D03*
D239*
X485443Y503736D03*
X710995Y503736D03*
D240*
X485062Y504498D03*
X711376Y504498D03*
D241*
X484681Y505260D03*
X711757Y505260D03*
D242*
X484300Y506022D03*
X712138Y506022D03*
D243*
X483919Y506784D03*
X712519Y506784D03*
D244*
X483538Y507546D03*
X712900Y507546D03*
D245*
X483157Y508308D03*
X713281Y508308D03*
D246*
X482776Y509070D03*
X713662Y509070D03*
D247*
X482395Y509832D03*
X714043Y509832D03*
D248*
X482014Y510594D03*
X714424Y510594D03*
D249*
X481633Y511356D03*
X714805Y511356D03*
D250*
X481252Y512118D03*
X715186Y512118D03*
D251*
X480871Y512880D03*
X715567Y512880D03*
D252*
X480490Y513642D03*
X715948Y513642D03*
D253*
X480109Y514404D03*
X716329Y514404D03*
D254*
X479728Y515166D03*
X716710Y515166D03*
D255*
X479347Y515928D03*
X717091Y515928D03*
D256*
X478966Y516690D03*
X717472Y516690D03*
D257*
X478585Y517452D03*
X717853Y517452D03*
D258*
X478204Y518214D03*
X718234Y518214D03*
D259*
X477823Y518976D03*
X718615Y518976D03*
D260*
X477442Y519738D03*
X718996Y519738D03*
D261*
X477061Y520500D03*
X719377Y520500D03*
D262*
X476680Y521262D03*
X719758Y521262D03*
D263*
X476299Y522024D03*
X720139Y522024D03*
D264*
X475918Y522786D03*
X720520Y522786D03*
D265*
X475537Y523548D03*
X720901Y523548D03*
D266*
X475156Y524310D03*
X721282Y524310D03*
D267*
X474775Y525072D03*
X721663Y525072D03*
D268*
X474394Y525834D03*
X722044Y525834D03*
D269*
X474013Y526596D03*
X722425Y526596D03*
D270*
X473632Y527358D03*
X722806Y527358D03*
D271*
X473251Y528120D03*
X723187Y528120D03*
D272*
X472870Y528882D03*
X723568Y528882D03*
D273*
X472489Y529644D03*
X723949Y529644D03*
D274*
X472108Y530406D03*
X724330Y530406D03*
D275*
X471727Y531168D03*
X724711Y531168D03*
D276*
X471346Y531930D03*
X725092Y531930D03*
X471346Y532692D03*
X725092Y532692D03*
D275*
X470965Y533454D03*
X725473Y533454D03*
D274*
X470584Y534216D03*
X725854Y534216D03*
D273*
X470203Y534978D03*
X726235Y534978D03*
D272*
X469822Y535740D03*
X726616Y535740D03*
D271*
X469441Y536502D03*
X726997Y536502D03*
D270*
X469060Y537264D03*
X727378Y537264D03*
D269*
X468679Y538026D03*
X727759Y538026D03*
D268*
X468298Y538788D03*
X728140Y538788D03*
D267*
X467917Y539550D03*
X728521Y539550D03*
D266*
X467536Y540312D03*
X728902Y540312D03*
D265*
X467155Y541074D03*
X729283Y541074D03*
D264*
X466774Y541836D03*
X729664Y541836D03*
D263*
X466393Y542598D03*
X730045Y542598D03*
D262*
X466012Y543360D03*
X730426Y543360D03*
D261*
X465631Y544122D03*
X730807Y544122D03*
D260*
X465250Y544884D03*
X731188Y544884D03*
D259*
X464869Y545646D03*
X731569Y545646D03*
D258*
X464488Y546408D03*
X731950Y546408D03*
D257*
X464107Y547170D03*
X732331Y547170D03*
D256*
X463726Y547932D03*
X732712Y547932D03*
D255*
X463345Y548694D03*
X733093Y548694D03*
D254*
X462964Y549456D03*
X733474Y549456D03*
D253*
X462583Y550218D03*
X733855Y550218D03*
D252*
X462202Y550980D03*
X734236Y550980D03*
D251*
X461821Y551742D03*
X734617Y551742D03*
D250*
X461440Y552504D03*
X734998Y552504D03*
D249*
X461059Y553266D03*
X735379Y553266D03*
D248*
X460678Y554028D03*
X735760Y554028D03*
D247*
X460297Y554790D03*
X736141Y554790D03*
D246*
X459916Y555552D03*
X736522Y555552D03*
D245*
X459535Y556314D03*
X736903Y556314D03*
D244*
X459154Y557076D03*
X737284Y557076D03*
D243*
X458773Y557838D03*
X737665Y557838D03*
D242*
X458392Y558600D03*
X738046Y558600D03*
D241*
X458011Y559362D03*
X738427Y559362D03*
D240*
X457630Y560124D03*
X738808Y560124D03*
D239*
X457249Y560886D03*
X739189Y560886D03*
D238*
X456868Y561648D03*
X739570Y561648D03*
D237*
X456487Y562410D03*
X739951Y562410D03*
D236*
X456106Y563172D03*
X740332Y563172D03*
D235*
X455725Y563934D03*
X740713Y563934D03*
D234*
X455344Y564696D03*
X741094Y564696D03*
D233*
X454963Y565458D03*
X741475Y565458D03*
D232*
X454582Y566220D03*
X741856Y566220D03*
D231*
X454201Y566982D03*
X742237Y566982D03*
D230*
X453820Y567744D03*
X742618Y567744D03*
D229*
X453439Y568506D03*
X742999Y568506D03*
D228*
X453058Y569268D03*
X743380Y569268D03*
D227*
X452677Y570030D03*
X743761Y570030D03*
D226*
X452296Y570792D03*
X744142Y570792D03*
D225*
X451915Y571554D03*
X744523Y571554D03*
D224*
X451534Y572316D03*
X744904Y572316D03*
D223*
X451153Y573078D03*
X745285Y573078D03*
D222*
X450772Y573840D03*
X745666Y573840D03*
D221*
X450391Y574602D03*
X746047Y574602D03*
D220*
X450010Y575364D03*
X746428Y575364D03*
D219*
X449629Y576126D03*
X746809Y576126D03*
D218*
X449248Y576888D03*
X747190Y576888D03*
D217*
X448867Y577650D03*
D11*
X598219Y577650D03*
D217*
X747571Y577650D03*
D216*
X448486Y578412D03*
D13*
X598219Y578412D03*
D216*
X747952Y578412D03*
D215*
X448105Y579174D03*
D15*
X598219Y579174D03*
D215*
X748333Y579174D03*
D214*
X447724Y579936D03*
D17*
X598219Y579936D03*
D214*
X748714Y579936D03*
D213*
X447343Y580698D03*
D19*
X598219Y580698D03*
D213*
X749095Y580698D03*
D212*
X446962Y581460D03*
D21*
X598219Y581460D03*
D212*
X749476Y581460D03*
D211*
X446581Y582222D03*
D23*
X598219Y582222D03*
D211*
X749857Y582222D03*
D210*
X446200Y582984D03*
D25*
X598219Y582984D03*
D210*
X750238Y582984D03*
D209*
X445819Y583746D03*
D27*
X598219Y583746D03*
D209*
X750619Y583746D03*
D208*
X445438Y584508D03*
D29*
X598219Y584508D03*
D208*
X751000Y584508D03*
D207*
X445057Y585270D03*
D31*
X598219Y585270D03*
D207*
X751381Y585270D03*
D206*
X444676Y586032D03*
D33*
X598219Y586032D03*
D206*
X751762Y586032D03*
D205*
X444295Y586794D03*
D35*
X598219Y586794D03*
D205*
X752143Y586794D03*
D204*
X443914Y587556D03*
D37*
X598219Y587556D03*
D204*
X752524Y587556D03*
D203*
X443533Y588318D03*
D39*
X598219Y588318D03*
D203*
X752905Y588318D03*
D202*
X443152Y589080D03*
D41*
X598219Y589080D03*
D202*
X753286Y589080D03*
D201*
X442771Y589842D03*
D43*
X598219Y589842D03*
D201*
X753667Y589842D03*
D200*
X442390Y590604D03*
D45*
X598219Y590604D03*
D200*
X754048Y590604D03*
D199*
X442009Y591366D03*
D47*
X598219Y591366D03*
D199*
X754429Y591366D03*
D198*
X441628Y592128D03*
D49*
X598219Y592128D03*
D198*
X754810Y592128D03*
D197*
X441247Y592890D03*
D51*
X598219Y592890D03*
D197*
X755191Y592890D03*
D196*
X440866Y593652D03*
D53*
X598219Y593652D03*
D196*
X755572Y593652D03*
D195*
X440485Y594414D03*
D55*
X598219Y594414D03*
D195*
X755953Y594414D03*
D194*
X440104Y595176D03*
D57*
X598219Y595176D03*
D194*
X756334Y595176D03*
D193*
X439723Y595938D03*
D59*
X598219Y595938D03*
D193*
X756715Y595938D03*
D192*
X439342Y596700D03*
D61*
X598219Y596700D03*
D192*
X757096Y596700D03*
D191*
X438961Y597462D03*
D63*
X598219Y597462D03*
D191*
X757477Y597462D03*
D190*
X438580Y598224D03*
D65*
X598219Y598224D03*
D190*
X757858Y598224D03*
D189*
X438199Y598986D03*
D67*
X598219Y598986D03*
D189*
X758239Y598986D03*
D188*
X437818Y599748D03*
D69*
X598219Y599748D03*
D188*
X758620Y599748D03*
D187*
X437437Y600510D03*
D71*
X598219Y600510D03*
D187*
X759001Y600510D03*
D186*
X437056Y601272D03*
D73*
X598219Y601272D03*
D186*
X759382Y601272D03*
D185*
X436675Y602034D03*
D75*
X598219Y602034D03*
D185*
X759763Y602034D03*
D184*
X436294Y602796D03*
D77*
X598219Y602796D03*
D184*
X760144Y602796D03*
D183*
X435913Y603558D03*
D79*
X598219Y603558D03*
D183*
X760525Y603558D03*
D182*
X435532Y604320D03*
D81*
X598219Y604320D03*
D182*
X760906Y604320D03*
D181*
X435151Y605082D03*
D83*
X598219Y605082D03*
D181*
X761287Y605082D03*
D180*
X434770Y605844D03*
D85*
X598219Y605844D03*
D180*
X761668Y605844D03*
D179*
X434389Y606606D03*
D87*
X598219Y606606D03*
D179*
X762049Y606606D03*
D178*
X434008Y607368D03*
D89*
X598219Y607368D03*
D178*
X762430Y607368D03*
D177*
X433627Y608130D03*
D91*
X598219Y608130D03*
D177*
X762811Y608130D03*
D176*
X433246Y608892D03*
D93*
X598219Y608892D03*
D176*
X763192Y608892D03*
D175*
X432865Y609654D03*
D95*
X598219Y609654D03*
D175*
X763573Y609654D03*
D174*
X432484Y610416D03*
D97*
X598219Y610416D03*
D174*
X763954Y610416D03*
D173*
X432103Y611178D03*
D99*
X598219Y611178D03*
D173*
X764335Y611178D03*
D172*
X431722Y611940D03*
D101*
X598219Y611940D03*
D172*
X764716Y611940D03*
D171*
X431341Y612702D03*
D103*
X598219Y612702D03*
D171*
X765097Y612702D03*
D170*
X430960Y613464D03*
D105*
X598219Y613464D03*
D170*
X765478Y613464D03*
D169*
X430579Y614226D03*
D107*
X598219Y614226D03*
D169*
X765859Y614226D03*
D168*
X430198Y614988D03*
D109*
X598219Y614988D03*
D168*
X766240Y614988D03*
D167*
X429817Y615750D03*
D111*
X598219Y615750D03*
D167*
X766621Y615750D03*
D166*
X429436Y616512D03*
D113*
X598219Y616512D03*
D166*
X767002Y616512D03*
D165*
X429055Y617274D03*
D115*
X598219Y617274D03*
D165*
X767383Y617274D03*
D164*
X428674Y618036D03*
D117*
X598219Y618036D03*
D164*
X767764Y618036D03*
D163*
X428293Y618798D03*
D119*
X598219Y618798D03*
D163*
X768145Y618798D03*
D162*
X427912Y619560D03*
D121*
X598219Y619560D03*
D162*
X768526Y619560D03*
D161*
X427531Y620322D03*
D123*
X598219Y620322D03*
D161*
X768907Y620322D03*
D160*
X427150Y621084D03*
D125*
X598219Y621084D03*
D160*
X769288Y621084D03*
D159*
X426769Y621846D03*
D127*
X598219Y621846D03*
D159*
X769669Y621846D03*
D158*
X426388Y622608D03*
D129*
X598219Y622608D03*
D158*
X770050Y622608D03*
D157*
X426007Y623370D03*
D131*
X598219Y623370D03*
D157*
X770431Y623370D03*
D156*
X425626Y624132D03*
D133*
X598219Y624132D03*
D156*
X770812Y624132D03*
D155*
X425245Y624894D03*
D135*
X598219Y624894D03*
D155*
X771193Y624894D03*
D154*
X424864Y625656D03*
D137*
X598219Y625656D03*
D154*
X771574Y625656D03*
D153*
X424483Y626418D03*
D139*
X598219Y626418D03*
D153*
X771955Y626418D03*
D152*
X424102Y627180D03*
D141*
X598219Y627180D03*
D152*
X772336Y627180D03*
D151*
X423721Y627942D03*
D143*
X598219Y627942D03*
D151*
X772717Y627942D03*
D150*
X423340Y628704D03*
D145*
X598219Y628704D03*
D150*
X773098Y628704D03*
D149*
X422959Y629466D03*
D147*
X598219Y629466D03*
D149*
X773479Y629466D03*
D148*
X422578Y630228D03*
D149*
X598219Y630228D03*
D148*
X773860Y630228D03*
D147*
X422197Y630990D03*
D151*
X598219Y630990D03*
D147*
X774241Y630990D03*
D146*
X421816Y631752D03*
D153*
X598219Y631752D03*
D146*
X774622Y631752D03*
D145*
X421435Y632514D03*
D155*
X598219Y632514D03*
D145*
X775003Y632514D03*
D144*
X421054Y633276D03*
D157*
X598219Y633276D03*
D144*
X775384Y633276D03*
D143*
X420673Y634038D03*
D159*
X598219Y634038D03*
D143*
X775765Y634038D03*
D142*
X420292Y634800D03*
D161*
X598219Y634800D03*
D142*
X776146Y634800D03*
D141*
X419911Y635562D03*
D163*
X598219Y635562D03*
D141*
X776527Y635562D03*
D140*
X419530Y636324D03*
D165*
X598219Y636324D03*
D140*
X776908Y636324D03*
D139*
X419149Y637086D03*
D167*
X598219Y637086D03*
D139*
X777289Y637086D03*
D138*
X418768Y637848D03*
D169*
X598219Y637848D03*
D138*
X777670Y637848D03*
D137*
X418387Y638610D03*
D171*
X598219Y638610D03*
D137*
X778051Y638610D03*
D136*
X418006Y639372D03*
D173*
X598219Y639372D03*
D136*
X778432Y639372D03*
D135*
X417625Y640134D03*
D175*
X598219Y640134D03*
D135*
X778813Y640134D03*
D134*
X417244Y640896D03*
D177*
X598219Y640896D03*
D134*
X779194Y640896D03*
D133*
X416863Y641658D03*
D179*
X598219Y641658D03*
D133*
X779575Y641658D03*
D132*
X416482Y642420D03*
D181*
X598219Y642420D03*
D132*
X779956Y642420D03*
D131*
X416101Y643182D03*
D183*
X598219Y643182D03*
D131*
X780337Y643182D03*
D130*
X415720Y643944D03*
D185*
X598219Y643944D03*
D130*
X780718Y643944D03*
D129*
X415339Y644706D03*
D187*
X598219Y644706D03*
D129*
X781099Y644706D03*
D128*
X414958Y645468D03*
D189*
X598219Y645468D03*
D128*
X781480Y645468D03*
D127*
X414577Y646230D03*
D191*
X598219Y646230D03*
D127*
X781861Y646230D03*
D126*
X414196Y646992D03*
D193*
X598219Y646992D03*
D126*
X782242Y646992D03*
D125*
X413815Y647754D03*
D195*
X598219Y647754D03*
D125*
X782623Y647754D03*
D124*
X413434Y648516D03*
D197*
X598219Y648516D03*
D124*
X783004Y648516D03*
D123*
X413053Y649278D03*
D199*
X598219Y649278D03*
D123*
X783385Y649278D03*
D122*
X412672Y650040D03*
D201*
X598219Y650040D03*
D122*
X783766Y650040D03*
D121*
X412291Y650802D03*
D203*
X598219Y650802D03*
D121*
X784147Y650802D03*
D120*
X411910Y651564D03*
D205*
X598219Y651564D03*
D120*
X784528Y651564D03*
D119*
X411529Y652326D03*
D207*
X598219Y652326D03*
D119*
X784909Y652326D03*
D118*
X411148Y653088D03*
D209*
X598219Y653088D03*
D118*
X785290Y653088D03*
D117*
X410767Y653850D03*
D211*
X598219Y653850D03*
D117*
X785671Y653850D03*
D116*
X410386Y654612D03*
D213*
X598219Y654612D03*
D116*
X786052Y654612D03*
D115*
X410005Y655374D03*
D215*
X598219Y655374D03*
D115*
X786433Y655374D03*
D114*
X409624Y656136D03*
D217*
X598219Y656136D03*
D114*
X786814Y656136D03*
D113*
X409243Y656898D03*
D219*
X598219Y656898D03*
D113*
X787195Y656898D03*
D112*
X408862Y657660D03*
D221*
X598219Y657660D03*
D112*
X787576Y657660D03*
D111*
X408481Y658422D03*
D223*
X598219Y658422D03*
D111*
X787957Y658422D03*
D110*
X408100Y659184D03*
D225*
X598219Y659184D03*
D110*
X788338Y659184D03*
D109*
X407719Y659946D03*
D227*
X598219Y659946D03*
D109*
X788719Y659946D03*
D108*
X407338Y660708D03*
D229*
X598219Y660708D03*
D108*
X789100Y660708D03*
D107*
X406957Y661470D03*
D231*
X598219Y661470D03*
D107*
X789481Y661470D03*
D106*
X406576Y662232D03*
D233*
X598219Y662232D03*
D106*
X789862Y662232D03*
D105*
X406195Y662994D03*
D235*
X598219Y662994D03*
D105*
X790243Y662994D03*
D104*
X405814Y663756D03*
D237*
X598219Y663756D03*
D104*
X790624Y663756D03*
D103*
X405433Y664518D03*
D239*
X598219Y664518D03*
D103*
X791005Y664518D03*
D102*
X405052Y665280D03*
D241*
X598219Y665280D03*
D102*
X791386Y665280D03*
D101*
X404671Y666042D03*
D243*
X598219Y666042D03*
D101*
X791767Y666042D03*
D100*
X404290Y666804D03*
D245*
X598219Y666804D03*
D100*
X792148Y666804D03*
D99*
X403909Y667566D03*
D247*
X598219Y667566D03*
D99*
X792529Y667566D03*
D98*
X403528Y668328D03*
D249*
X598219Y668328D03*
D98*
X792910Y668328D03*
D97*
X403147Y669090D03*
D251*
X598219Y669090D03*
D97*
X793291Y669090D03*
D96*
X402766Y669852D03*
D253*
X598219Y669852D03*
D96*
X793672Y669852D03*
D95*
X402385Y670614D03*
D255*
X598219Y670614D03*
D95*
X794053Y670614D03*
D94*
X402004Y671376D03*
D257*
X598219Y671376D03*
D94*
X794434Y671376D03*
D93*
X401623Y672138D03*
D259*
X598219Y672138D03*
D93*
X794815Y672138D03*
D92*
X401242Y672900D03*
D261*
X598219Y672900D03*
D92*
X795196Y672900D03*
D91*
X400861Y673662D03*
D263*
X598219Y673662D03*
D91*
X795577Y673662D03*
D90*
X400480Y674424D03*
D265*
X598219Y674424D03*
D90*
X795958Y674424D03*
D89*
X400099Y675186D03*
D267*
X598219Y675186D03*
D89*
X796339Y675186D03*
D88*
X399718Y675948D03*
D269*
X598219Y675948D03*
D88*
X796720Y675948D03*
D87*
X399337Y676710D03*
D271*
X598219Y676710D03*
D87*
X797101Y676710D03*
D86*
X398956Y677472D03*
D273*
X598219Y677472D03*
D86*
X797482Y677472D03*
D85*
X398575Y678234D03*
D275*
X598219Y678234D03*
D85*
X797863Y678234D03*
D84*
X398194Y678996D03*
D277*
X598219Y678996D03*
D84*
X798244Y678996D03*
D83*
X397813Y679758D03*
D278*
X598219Y679758D03*
D83*
X798625Y679758D03*
D82*
X397432Y680520D03*
D279*
X598219Y680520D03*
D82*
X799006Y680520D03*
D81*
X397051Y681282D03*
D280*
X598219Y681282D03*
D81*
X799387Y681282D03*
D80*
X396670Y682044D03*
D281*
X598219Y682044D03*
D80*
X799768Y682044D03*
D79*
X396289Y682806D03*
D282*
X598219Y682806D03*
D79*
X800149Y682806D03*
D78*
X395908Y683568D03*
D283*
X598219Y683568D03*
D78*
X800530Y683568D03*
D77*
X395527Y684330D03*
D284*
X598219Y684330D03*
D77*
X800911Y684330D03*
D76*
X395146Y685092D03*
D285*
X598219Y685092D03*
D76*
X801292Y685092D03*
D75*
X394765Y685854D03*
D286*
X598219Y685854D03*
D75*
X801673Y685854D03*
D74*
X394384Y686616D03*
D287*
X598219Y686616D03*
D74*
X802054Y686616D03*
D73*
X394003Y687378D03*
D288*
X598219Y687378D03*
D73*
X802435Y687378D03*
D72*
X393622Y688140D03*
D289*
X598219Y688140D03*
D72*
X802816Y688140D03*
D71*
X393241Y688902D03*
D290*
X598219Y688902D03*
D71*
X803197Y688902D03*
D70*
X392860Y689664D03*
D291*
X598219Y689664D03*
D70*
X803578Y689664D03*
D69*
X392479Y690426D03*
D292*
X598219Y690426D03*
D69*
X803959Y690426D03*
D68*
X392098Y691188D03*
D293*
X598219Y691188D03*
D68*
X804340Y691188D03*
D67*
X391717Y691950D03*
D294*
X598219Y691950D03*
D67*
X804721Y691950D03*
D66*
X391336Y692712D03*
D295*
X598219Y692712D03*
D66*
X805102Y692712D03*
D65*
X390955Y693474D03*
D296*
X598219Y693474D03*
D65*
X805483Y693474D03*
D64*
X390574Y694236D03*
D297*
X598219Y694236D03*
D64*
X805864Y694236D03*
D63*
X390193Y694998D03*
D298*
X598219Y694998D03*
D63*
X806245Y694998D03*
D62*
X389812Y695760D03*
D299*
X598219Y695760D03*
D62*
X806626Y695760D03*
D61*
X389431Y696522D03*
D300*
X598219Y696522D03*
D61*
X807007Y696522D03*
D60*
X389050Y697284D03*
D301*
X598219Y697284D03*
D60*
X807388Y697284D03*
D59*
X388669Y698046D03*
D302*
X598219Y698046D03*
D59*
X807769Y698046D03*
D58*
X388288Y698808D03*
D303*
X598219Y698808D03*
D58*
X808150Y698808D03*
D57*
X387907Y699570D03*
D304*
X598219Y699570D03*
D57*
X808531Y699570D03*
D56*
X387526Y700332D03*
D305*
X598219Y700332D03*
D56*
X808912Y700332D03*
D55*
X387145Y701094D03*
D306*
X598219Y701094D03*
D55*
X809293Y701094D03*
D54*
X386764Y701856D03*
D307*
X598219Y701856D03*
D54*
X809674Y701856D03*
D53*
X386383Y702618D03*
D308*
X598219Y702618D03*
D53*
X810055Y702618D03*
D52*
X386002Y703380D03*
D309*
X598219Y703380D03*
D52*
X810436Y703380D03*
D51*
X385621Y704142D03*
D310*
X598219Y704142D03*
D51*
X810817Y704142D03*
D50*
X385240Y704904D03*
D311*
X598219Y704904D03*
D50*
X811198Y704904D03*
D49*
X384859Y705666D03*
D312*
X598219Y705666D03*
D49*
X811579Y705666D03*
D48*
X384478Y706428D03*
D313*
X598219Y706428D03*
D48*
X811960Y706428D03*
D47*
X384097Y707190D03*
D314*
X598219Y707190D03*
D47*
X812341Y707190D03*
D46*
X383716Y707952D03*
D315*
X598219Y707952D03*
D46*
X812722Y707952D03*
D45*
X383335Y708714D03*
D316*
X598219Y708714D03*
D45*
X813103Y708714D03*
D44*
X382954Y709476D03*
D317*
X598219Y709476D03*
D44*
X813484Y709476D03*
D43*
X382573Y710238D03*
D318*
X598219Y710238D03*
D43*
X813865Y710238D03*
D42*
X382192Y711000D03*
D319*
X598219Y711000D03*
D42*
X814246Y711000D03*
D41*
X381811Y711762D03*
D320*
X598219Y711762D03*
D41*
X814627Y711762D03*
D40*
X381430Y712524D03*
D321*
X598219Y712524D03*
D40*
X815008Y712524D03*
D39*
X381049Y713286D03*
D322*
X598219Y713286D03*
D39*
X815389Y713286D03*
D38*
X380668Y714048D03*
D323*
X598219Y714048D03*
D38*
X815770Y714048D03*
D37*
X380287Y714810D03*
D324*
X598219Y714810D03*
D37*
X816151Y714810D03*
D36*
X379906Y715572D03*
D325*
X598219Y715572D03*
D36*
X816532Y715572D03*
D35*
X379525Y716334D03*
D326*
X598219Y716334D03*
D35*
X816913Y716334D03*
D34*
X379144Y717096D03*
D327*
X598219Y717096D03*
D34*
X817294Y717096D03*
D33*
X378763Y717858D03*
D328*
X598219Y717858D03*
D33*
X817675Y717858D03*
D32*
X378382Y718620D03*
D329*
X598219Y718620D03*
D32*
X818056Y718620D03*
D31*
X378001Y719382D03*
D330*
X598219Y719382D03*
D31*
X818437Y719382D03*
D30*
X377620Y720144D03*
D331*
X598219Y720144D03*
D30*
X818818Y720144D03*
D29*
X377239Y720906D03*
D331*
X598219Y720906D03*
D29*
X819199Y720906D03*
D28*
X376858Y721668D03*
D330*
X598219Y721668D03*
D28*
X819580Y721668D03*
D27*
X376477Y722430D03*
D329*
X598219Y722430D03*
D27*
X819961Y722430D03*
D26*
X376096Y723192D03*
D328*
X598219Y723192D03*
D26*
X820342Y723192D03*
D25*
X375715Y723954D03*
D327*
X598219Y723954D03*
D25*
X820723Y723954D03*
D24*
X375334Y724716D03*
D326*
X598219Y724716D03*
D24*
X821104Y724716D03*
D23*
X374953Y725478D03*
D325*
X598219Y725478D03*
D23*
X821485Y725478D03*
D22*
X374572Y726240D03*
D324*
X598219Y726240D03*
D22*
X821866Y726240D03*
D21*
X374191Y727002D03*
D323*
X598219Y727002D03*
D21*
X822247Y727002D03*
D20*
X373810Y727764D03*
D322*
X598219Y727764D03*
D20*
X822628Y727764D03*
D19*
X373429Y728526D03*
D321*
X598219Y728526D03*
D19*
X823009Y728526D03*
D18*
X373048Y729288D03*
D320*
X598219Y729288D03*
D18*
X823390Y729288D03*
D17*
X372667Y730050D03*
D319*
X598219Y730050D03*
D17*
X823771Y730050D03*
D16*
X372286Y730812D03*
D318*
X598219Y730812D03*
D16*
X824152Y730812D03*
D15*
X371905Y731574D03*
D317*
X598219Y731574D03*
D15*
X824533Y731574D03*
D14*
X371524Y732336D03*
D316*
X598219Y732336D03*
D14*
X824914Y732336D03*
D13*
X371143Y733098D03*
D315*
X598219Y733098D03*
D13*
X825295Y733098D03*
D12*
X370762Y733860D03*
D314*
X598219Y733860D03*
D12*
X825676Y733860D03*
D11*
X370381Y734622D03*
D313*
X598219Y734622D03*
D11*
X826057Y734622D03*
D332*
X370000Y735384D03*
D312*
X598219Y735384D03*
D332*
X826438Y735384D03*
D311*
X598219Y736146D03*
D310*
X598219Y736908D03*
D309*
X598219Y737670D03*
D308*
X598219Y738432D03*
D307*
X598219Y739194D03*
D306*
X598219Y739956D03*
D305*
X598219Y740718D03*
D304*
X598219Y741480D03*
D303*
X598219Y742242D03*
D302*
X598219Y743004D03*
D301*
X598219Y743766D03*
D300*
X598219Y744528D03*
D299*
X598219Y745290D03*
D298*
X598219Y746052D03*
D297*
X598219Y746814D03*
D296*
X598219Y747576D03*
D295*
X598219Y748338D03*
D294*
X598219Y749100D03*
D293*
X598219Y749862D03*
D292*
X598219Y750624D03*
D291*
X598219Y751386D03*
D290*
X598219Y752148D03*
D289*
X598219Y752910D03*
D288*
X598219Y753672D03*
D287*
X598219Y754434D03*
D286*
X598219Y755196D03*
D285*
X598219Y755958D03*
D284*
X598219Y756720D03*
D283*
X598219Y757482D03*
D282*
X598219Y758244D03*
D281*
X598219Y759006D03*
D280*
X598219Y759768D03*
D279*
X598219Y760530D03*
D278*
X598219Y761292D03*
D277*
X598219Y762054D03*
D275*
X598219Y762816D03*
D273*
X598219Y763578D03*
D271*
X598219Y764340D03*
D269*
X598219Y765102D03*
D267*
X598219Y765864D03*
D265*
X598219Y766626D03*
D263*
X598219Y767388D03*
D261*
X598219Y768150D03*
D259*
X598219Y768912D03*
D257*
X598219Y769674D03*
D255*
X598219Y770436D03*
D253*
X598219Y771198D03*
D251*
X598219Y771960D03*
D249*
X598219Y772722D03*
D247*
X598219Y773484D03*
D245*
X598219Y774246D03*
D243*
X598219Y775008D03*
D241*
X598219Y775770D03*
D239*
X598219Y776532D03*
D237*
X598219Y777294D03*
D235*
X598219Y778056D03*
D233*
X598219Y778818D03*
D231*
X598219Y779580D03*
D229*
X598219Y780342D03*
D227*
X598219Y781104D03*
D225*
X598219Y781866D03*
D223*
X598219Y782628D03*
D221*
X598219Y783390D03*
D219*
X598219Y784152D03*
D217*
X598219Y784914D03*
D215*
X598219Y785676D03*
D213*
X598219Y786438D03*
D211*
X598219Y787200D03*
D209*
X598219Y787962D03*
D207*
X598219Y788724D03*
D205*
X598219Y789486D03*
D203*
X598219Y790248D03*
D201*
X598219Y791010D03*
D199*
X598219Y791772D03*
D197*
X598219Y792534D03*
D195*
X598219Y793296D03*
D193*
X598219Y794058D03*
D191*
X598219Y794820D03*
D189*
X598219Y795582D03*
D187*
X598219Y796344D03*
D185*
X598219Y797106D03*
D183*
X598219Y797868D03*
D181*
X598219Y798630D03*
D179*
X598219Y799392D03*
D177*
X598219Y800154D03*
D175*
X598219Y800916D03*
D173*
X598219Y801678D03*
D171*
X598219Y802440D03*
D169*
X598219Y803202D03*
D167*
X598219Y803964D03*
D165*
X598219Y804726D03*
D163*
X598219Y805488D03*
D161*
X598219Y806250D03*
D159*
X598219Y807012D03*
D157*
X598219Y807774D03*
D155*
X598219Y808536D03*
D153*
X598219Y809298D03*
D151*
X598219Y810060D03*
D149*
X598219Y810822D03*
D147*
X598219Y811584D03*
D145*
X598219Y812346D03*
D143*
X598219Y813108D03*
D141*
X598219Y813870D03*
D139*
X598219Y814632D03*
D137*
X598219Y815394D03*
D135*
X598219Y816156D03*
D133*
X598219Y816918D03*
D131*
X598219Y817680D03*
D129*
X598219Y818442D03*
D127*
X598219Y819204D03*
D125*
X598219Y819966D03*
D123*
X598219Y820728D03*
D121*
X598219Y821490D03*
D119*
X598219Y822252D03*
D117*
X598219Y823014D03*
D115*
X598219Y823776D03*
D113*
X598219Y824538D03*
D111*
X598219Y825300D03*
D109*
X598219Y826062D03*
D107*
X598219Y826824D03*
D105*
X598219Y827586D03*
D103*
X598219Y828348D03*
D101*
X598219Y829110D03*
D99*
X598219Y829872D03*
D97*
X598219Y830634D03*
D95*
X598219Y831396D03*
D93*
X598219Y832158D03*
D91*
X598219Y832920D03*
D89*
X598219Y833682D03*
D87*
X598219Y834444D03*
D85*
X598219Y835206D03*
D83*
X598219Y835968D03*
D81*
X598219Y836730D03*
D79*
X598219Y837492D03*
D77*
X598219Y838254D03*
D75*
X598219Y839016D03*
D73*
X598219Y839778D03*
D71*
X598219Y840540D03*
D69*
X598219Y841302D03*
D67*
X598219Y842064D03*
D65*
X598219Y842826D03*
D63*
X598219Y843588D03*
D61*
X598219Y844350D03*
D59*
X598219Y845112D03*
D57*
X598219Y845874D03*
D55*
X598219Y846636D03*
D53*
X598219Y847398D03*
D51*
X598219Y848160D03*
D49*
X598219Y848922D03*
D47*
X598219Y849684D03*
D45*
X598219Y850446D03*
D43*
X598219Y851208D03*
D41*
X598219Y851970D03*
D39*
X598219Y852732D03*
D37*
X598219Y853494D03*
D35*
X598219Y854256D03*
D33*
X598219Y855018D03*
D31*
X598219Y855780D03*
D29*
X598219Y856542D03*
D27*
X598219Y857304D03*
D25*
X598219Y858066D03*
D23*
X598219Y858828D03*
D21*
X598219Y859590D03*
D19*
X598219Y860352D03*
D17*
X598219Y861114D03*
D15*
X598219Y861876D03*
D13*
X598219Y862638D03*
D11*
X598219Y863400D03*
D333*
X981083Y1067831D02*
X982496Y1069245D01*
X985324Y1069245D01*
X986738Y1067831D01*
X986738Y1066418D01*
X985324Y1065004D01*
X982496Y1065004D01*
X981083Y1063590D01*
X981083Y1062176D01*
X982496Y1060762D01*
X985324Y1060762D01*
X986738Y1062176D01*
X977530Y1069245D02*
X971875Y1069245D01*
X977530Y1069245D02*
X977530Y1060762D01*
X971875Y1060762D01*
X974702Y1065004D02*
X977530Y1065004D01*
X965495Y1060762D02*
X965495Y1069245D01*
X968322Y1069245D02*
X962667Y1069245D01*
X947079Y1069245D02*
X947079Y1060762D01*
X949907Y1069245D02*
X944251Y1069245D01*
X940699Y1060762D02*
X937871Y1060762D01*
X939285Y1060762D02*
X939285Y1069245D01*
X940699Y1069245D02*
X937871Y1069245D01*
X934560Y1069245D02*
X934560Y1060762D01*
X931732Y1066418D02*
X934560Y1069245D01*
X931732Y1066418D02*
X928905Y1069245D01*
X928905Y1060762D01*
X925352Y1069245D02*
X919697Y1069245D01*
X925352Y1069245D02*
X925352Y1060762D01*
X919697Y1060762D01*
X922525Y1065004D02*
X925352Y1065004D01*
D334*
X110000Y240000D02*
X110000Y220000D01*
X120000Y230000D02*
X100000Y230000D01*
X110000Y120000D02*
X110000Y100000D01*
X100000Y110000D02*
X120000Y110000D01*
X400000Y230000D02*
X420000Y230000D01*
X410000Y240000D02*
X410000Y220000D01*
X410000Y120000D02*
X410000Y100000D01*
X400000Y110000D02*
X420000Y110000D01*
D335*
X339619Y170381D02*
X339619Y179627D01*
X334996Y179627D01*
X333455Y178086D01*
X333455Y175004D01*
X334996Y173463D01*
X339619Y173463D01*
X330411Y170381D02*
X330411Y179627D01*
X330411Y170381D02*
X324247Y170381D01*
X321203Y170381D02*
X321203Y176545D01*
X318121Y179627D01*
X315039Y176545D01*
X315039Y170381D01*
X315039Y175004D02*
X321203Y175004D01*
X307373Y179627D02*
X305832Y178086D01*
X307373Y179627D02*
X310455Y179627D01*
X311995Y178086D01*
X311995Y171922D01*
X310455Y170381D01*
X307373Y170381D01*
X305832Y171922D01*
X302788Y179627D02*
X296624Y179627D01*
X302788Y179627D02*
X302788Y170381D01*
X296624Y170381D01*
X299706Y175004D02*
X302788Y175004D01*
X279749Y179627D02*
X278208Y178086D01*
X279749Y179627D02*
X282831Y179627D01*
X284372Y178086D01*
X284372Y176545D01*
X282831Y175004D01*
X279749Y175004D01*
X278208Y173463D01*
X278208Y171922D01*
X279749Y170381D01*
X282831Y170381D01*
X284372Y171922D01*
X275164Y179627D02*
X269000Y179627D01*
X275164Y179627D02*
X275164Y170381D01*
X269000Y170381D01*
X272082Y175004D02*
X275164Y175004D01*
X265956Y170381D02*
X265956Y179627D01*
X261333Y179627D01*
X259792Y178086D01*
X259792Y175004D01*
X261333Y173463D01*
X265956Y173463D01*
X262874Y173463D02*
X259792Y170381D01*
X256748Y170381D02*
X253666Y170381D01*
X255207Y170381D02*
X255207Y179627D01*
X256748Y179627D02*
X253666Y179627D01*
X250610Y176545D02*
X250610Y170381D01*
X250610Y176545D02*
X247528Y179627D01*
X244446Y176545D01*
X244446Y170381D01*
X244446Y175004D02*
X250610Y175004D01*
X241402Y179627D02*
X241402Y170381D01*
X235238Y170381D01*
X222986Y170381D02*
X222986Y179627D01*
X222986Y175004D02*
X216822Y175004D01*
X216822Y179627D02*
X216822Y170381D01*
X213778Y179627D02*
X207615Y179627D01*
X213778Y179627D02*
X213778Y170381D01*
X207615Y170381D01*
X210697Y175004D02*
X213778Y175004D01*
X204571Y170381D02*
X204571Y179627D01*
X199948Y179627D01*
X198407Y178086D01*
X198407Y175004D01*
X199948Y173463D01*
X204571Y173463D01*
X201489Y173463D02*
X198407Y170381D01*
X195363Y179627D02*
X189199Y179627D01*
X195363Y179627D02*
X195363Y170381D01*
X189199Y170381D01*
X192281Y175004D02*
X195363Y175004D01*
D333*
X1164245Y46492D02*
X1164245Y40837D01*
X1160004Y40837D01*
X1161418Y43665D01*
X1161418Y45079D01*
X1160004Y46492D01*
X1157176Y46492D01*
X1155762Y45079D01*
X1155762Y42251D01*
X1157176Y40837D01*
X1158590Y50045D02*
X1164245Y50045D01*
X1158590Y50045D02*
X1155762Y52872D01*
X1158590Y55700D01*
X1164245Y55700D01*
X1164245Y68460D02*
X1155762Y68460D01*
X1161418Y71288D02*
X1164245Y68460D01*
X1161418Y71288D02*
X1164245Y74116D01*
X1155762Y74116D01*
X1155762Y77668D02*
X1155762Y80496D01*
X1155762Y79082D02*
X1164245Y79082D01*
X1164245Y77668D02*
X1164245Y80496D01*
X1164245Y88048D02*
X1162831Y89462D01*
X1164245Y88048D02*
X1164245Y85221D01*
X1162831Y83807D01*
X1157176Y83807D01*
X1155762Y85221D01*
X1155762Y88048D01*
X1157176Y89462D01*
X1155762Y93015D02*
X1164245Y93015D01*
X1164245Y97256D01*
X1162831Y98670D01*
X1160004Y98670D01*
X1158590Y97256D01*
X1158590Y93015D01*
X1158590Y95842D02*
X1155762Y98670D01*
X1164245Y103636D02*
X1164245Y106464D01*
X1164245Y103636D02*
X1162831Y102223D01*
X1157176Y102223D01*
X1155762Y103636D01*
X1155762Y106464D01*
X1157176Y107878D01*
X1162831Y107878D01*
X1164245Y106464D01*
X1164245Y120638D02*
X1157176Y120638D01*
X1155762Y122052D01*
X1155762Y124880D01*
X1157176Y126294D01*
X1164245Y126294D01*
X1164245Y134088D02*
X1162831Y135502D01*
X1164245Y134088D02*
X1164245Y131260D01*
X1162831Y129846D01*
X1161418Y129846D01*
X1160004Y131260D01*
X1160004Y134088D01*
X1158590Y135502D01*
X1157176Y135502D01*
X1155762Y134088D01*
X1155762Y131260D01*
X1157176Y129846D01*
X1155762Y139054D02*
X1164245Y139054D01*
X1164245Y143296D01*
X1162831Y144709D01*
X1161418Y144709D01*
X1160004Y143296D01*
X1158590Y144709D01*
X1157176Y144709D01*
X1155762Y143296D01*
X1155762Y139054D01*
X1160004Y139054D02*
X1160004Y143296D01*
D336*
X578850Y1126450D02*
X566150Y1126450D01*
M02*
