G04 EAGLE Gerber RS-274X export*
G75*
%MOMM*%
%FSLAX34Y34*%
%LPD*%
%INSoldermask Top*%
%IPPOS*%
%AMOC8*
5,1,8,0,0,1.08239X$1,22.5*%
G01*
%ADD10R,1.422400X0.711200*%
%ADD11R,0.711200X1.422400*%
%ADD12R,2.212400X1.952400*%
%ADD13R,1.142400X1.952400*%
%ADD14R,1.152400X1.252400*%
%ADD15C,1.637400*%
%ADD16C,2.102400*%
%ADD17R,1.502400X0.552400*%
%ADD18R,1.552400X1.752400*%
%ADD19R,2.052400X2.052400*%
%ADD20C,0.652400*%
%ADD21C,1.052400*%
%ADD22R,1.252400X1.152400*%
%ADD23C,0.374903*%
%ADD24C,1.676400*%
%ADD25C,2.032000*%
%ADD26R,1.552400X1.152400*%


D10*
X702926Y632000D03*
X702926Y640000D03*
X702926Y648000D03*
X702926Y656000D03*
X702926Y664000D03*
X702926Y672000D03*
X702926Y680000D03*
X702926Y688000D03*
D11*
X688000Y702926D03*
X680000Y702926D03*
X672000Y702926D03*
X664000Y702926D03*
X656000Y702926D03*
X648000Y702926D03*
X640000Y702926D03*
X632000Y702926D03*
D10*
X617074Y688000D03*
X617074Y680000D03*
X617074Y672000D03*
X617074Y664000D03*
X617074Y656000D03*
X617074Y648000D03*
X617074Y640000D03*
X617074Y632000D03*
D11*
X632000Y617074D03*
X640000Y617074D03*
X648000Y617074D03*
X656000Y617074D03*
X664000Y617074D03*
X672000Y617074D03*
X680000Y617074D03*
X688000Y617074D03*
D12*
X174300Y1020000D03*
D13*
X194050Y1020000D03*
D12*
X174300Y900000D03*
D13*
X194050Y900000D03*
D12*
X174300Y780000D03*
D13*
X194050Y780000D03*
D12*
X174300Y660000D03*
D13*
X194050Y660000D03*
D12*
X174300Y540000D03*
D13*
X194050Y540000D03*
D12*
X174300Y420000D03*
D13*
X194050Y420000D03*
D12*
X174300Y300000D03*
D13*
X194050Y300000D03*
D12*
X174300Y180000D03*
D13*
X194050Y180000D03*
D12*
X294300Y1020000D03*
D13*
X314050Y1020000D03*
D12*
X294300Y900000D03*
D13*
X314050Y900000D03*
D12*
X294300Y780000D03*
D13*
X314050Y780000D03*
D12*
X294300Y660000D03*
D13*
X314050Y660000D03*
D12*
X294300Y540000D03*
D13*
X314050Y540000D03*
D12*
X294300Y420000D03*
D13*
X314050Y420000D03*
D12*
X294300Y300000D03*
D13*
X314050Y300000D03*
D12*
X294300Y180000D03*
D13*
X314050Y180000D03*
D12*
X414300Y1020000D03*
D13*
X434050Y1020000D03*
D12*
X414300Y900000D03*
D13*
X434050Y900000D03*
D12*
X414300Y780000D03*
D13*
X434050Y780000D03*
D12*
X414300Y660000D03*
D13*
X434050Y660000D03*
D12*
X414300Y540000D03*
D13*
X434050Y540000D03*
D12*
X414300Y420000D03*
D13*
X434050Y420000D03*
D12*
X414300Y300000D03*
D13*
X434050Y300000D03*
D12*
X414300Y180000D03*
D13*
X434050Y180000D03*
D12*
X534300Y1020000D03*
D13*
X554050Y1020000D03*
D12*
X534300Y900000D03*
D13*
X554050Y900000D03*
D12*
X534300Y780000D03*
D13*
X554050Y780000D03*
D12*
X534300Y660000D03*
D13*
X554050Y660000D03*
D12*
X534300Y540000D03*
D13*
X554050Y540000D03*
D12*
X534300Y420000D03*
D13*
X554050Y420000D03*
D12*
X534300Y300000D03*
D13*
X554050Y300000D03*
D12*
X534300Y180000D03*
D13*
X554050Y180000D03*
D12*
X654300Y1020000D03*
D13*
X674050Y1020000D03*
D12*
X654300Y900000D03*
D13*
X674050Y900000D03*
D12*
X654300Y780000D03*
D13*
X674050Y780000D03*
D12*
X654300Y660000D03*
D13*
X674050Y660000D03*
D12*
X654300Y540000D03*
D13*
X674050Y540000D03*
D12*
X654300Y420000D03*
D13*
X674050Y420000D03*
D12*
X654300Y300000D03*
D13*
X674050Y300000D03*
D12*
X654300Y180000D03*
D13*
X674050Y180000D03*
D12*
X774300Y1020000D03*
D13*
X794050Y1020000D03*
D12*
X774300Y900000D03*
D13*
X794050Y900000D03*
D12*
X774300Y780000D03*
D13*
X794050Y780000D03*
D12*
X774300Y660000D03*
D13*
X794050Y660000D03*
D12*
X774300Y540000D03*
D13*
X794050Y540000D03*
D12*
X774300Y420000D03*
D13*
X794050Y420000D03*
D12*
X774300Y300000D03*
D13*
X794050Y300000D03*
D12*
X774300Y180000D03*
D13*
X794050Y180000D03*
D12*
X894300Y1020000D03*
D13*
X914050Y1020000D03*
D12*
X894300Y900000D03*
D13*
X914050Y900000D03*
D12*
X894300Y780000D03*
D13*
X914050Y780000D03*
D12*
X894300Y660000D03*
D13*
X914050Y660000D03*
D12*
X894300Y540000D03*
D13*
X914050Y540000D03*
D12*
X894300Y420000D03*
D13*
X914050Y420000D03*
D12*
X894300Y300000D03*
D13*
X914050Y300000D03*
D12*
X894300Y180000D03*
D13*
X914050Y180000D03*
D12*
X1014300Y1020000D03*
D13*
X1034050Y1020000D03*
D12*
X1014300Y900000D03*
D13*
X1034050Y900000D03*
D12*
X1014300Y780000D03*
D13*
X1034050Y780000D03*
D12*
X1014300Y660000D03*
D13*
X1034050Y660000D03*
D12*
X1014300Y540000D03*
D13*
X1034050Y540000D03*
D12*
X1014300Y420000D03*
D13*
X1034050Y420000D03*
D12*
X1014300Y300000D03*
D13*
X1034050Y300000D03*
D12*
X1014300Y180000D03*
D13*
X1034050Y180000D03*
D14*
X630000Y801500D03*
X630000Y818500D03*
X700000Y518500D03*
X700000Y501500D03*
X700000Y578500D03*
X700000Y561500D03*
X740000Y801500D03*
X740000Y818500D03*
X740000Y578500D03*
X740000Y561500D03*
X700000Y801500D03*
X700000Y818500D03*
X580000Y681500D03*
X580000Y698500D03*
X580000Y621500D03*
X580000Y638500D03*
D15*
X977500Y1120000D03*
X932500Y1120000D03*
D16*
X990050Y1095100D03*
X919950Y1095100D03*
D17*
X1158250Y82000D03*
X1158250Y88500D03*
X1158250Y95000D03*
X1158250Y101500D03*
X1158250Y108000D03*
D18*
X1160500Y63000D03*
X1160500Y127000D03*
D19*
X1185000Y83000D03*
X1185000Y107000D03*
D20*
X1185000Y62000D03*
X1185000Y128000D03*
D21*
X1189500Y62000D02*
X1180500Y62000D01*
X1180500Y128000D02*
X1189500Y128000D01*
D14*
X1137500Y111500D03*
X1137500Y128500D03*
X1115000Y56500D03*
X1115000Y73500D03*
D22*
X1115000Y128500D03*
X1115000Y111500D03*
D23*
X1134167Y75953D02*
X1134167Y69287D01*
X1134167Y75953D02*
X1140833Y75953D01*
X1140833Y69287D01*
X1134167Y69287D01*
X1134167Y72849D02*
X1140833Y72849D01*
X1134167Y60713D02*
X1134167Y54047D01*
X1134167Y60713D02*
X1140833Y60713D01*
X1140833Y54047D01*
X1134167Y54047D01*
X1134167Y57609D02*
X1140833Y57609D01*
D24*
X1147620Y770800D02*
X1132380Y770800D01*
X1132380Y745400D02*
X1147620Y745400D01*
X1147620Y720000D02*
X1132380Y720000D01*
X1132380Y694600D02*
X1147620Y694600D01*
X1147620Y669200D02*
X1132380Y669200D01*
D25*
X572500Y1142500D03*
X572500Y1167900D03*
X597900Y1142500D03*
X597900Y1167900D03*
X623300Y1142500D03*
X623300Y1167900D03*
D14*
X743000Y682000D03*
X743000Y665000D03*
D25*
X1105000Y369500D03*
X1105000Y394900D03*
X1105000Y420300D03*
X1105000Y445700D03*
X1105000Y471100D03*
X1105000Y496500D03*
X1105000Y521900D03*
X1105000Y547300D03*
X512000Y95000D03*
X537400Y95000D03*
X562800Y95000D03*
X588200Y95000D03*
X613600Y95000D03*
X639000Y95000D03*
X664400Y95000D03*
X689800Y95000D03*
X95000Y511000D03*
X95000Y536400D03*
X95000Y561800D03*
X95000Y587200D03*
X95000Y612600D03*
X95000Y638000D03*
X95000Y663400D03*
X95000Y688800D03*
X510000Y1105000D03*
X535400Y1105000D03*
X560800Y1105000D03*
X586200Y1105000D03*
X611600Y1105000D03*
X637000Y1105000D03*
X662400Y1105000D03*
X687800Y1105000D03*
D14*
X1063500Y744500D03*
X1063500Y727500D03*
D26*
X919000Y267500D03*
X941000Y277000D03*
X941000Y258000D03*
D14*
X911500Y210000D03*
X928500Y210000D03*
X981500Y210000D03*
X998500Y210000D03*
X876000Y267500D03*
X859000Y267500D03*
M02*
