M48
;GenerationSoftware,Autodesk,EAGLE,9.4.2*%
;CreationDate,2019-08-14T19:27:57Z*%
FMAT,2
ICI,OFF
METRIC,TZ,000.000
T5C0.350
T4C0.500
T3C0.990
T2C1.016
T1C1.300
%
G90
M71
T1
X99005Y109510
X91995Y109510
T2
X63700Y110500
X61160Y110500
X58620Y110500
X56080Y110500
X53540Y110500
X51000Y110500
X9500Y68880
X9500Y66340
X9500Y63800
X9500Y61260
X9500Y58720
X9500Y56180
X9500Y53640
X9500Y51100
X68980Y9500
X66440Y9500
X63900Y9500
X61360Y9500
X58820Y9500
X56280Y9500
X53740Y9500
X51200Y9500
X110500Y54730
X110500Y52190
X110500Y49650
X110500Y47110
X110500Y44570
X110500Y42030
X110500Y39490
X110500Y36950
X62330Y116790
X62330Y114250
X59790Y116790
X59790Y114250
X57250Y116790
X57250Y114250
X114000Y66920
X114000Y69460
X114000Y72000
X114000Y74540
X114000Y77080
X68780Y110500
X66240Y110500
T3
X93250Y112000
X97750Y112000
T4
X118500Y6200
X118500Y12800
X118500Y12800
X118500Y6200
T5
X68000Y44000
X62500Y44000
X87000Y28000
X91000Y28000
X39000Y28000
X43000Y28000
X27000Y28000
X31000Y28000
X51000Y28000
X55000Y28000
X67000Y28000
X75000Y28000
X79000Y28000
X99000Y28000
X103000Y28000
X87000Y52000
X91000Y52000
X39000Y52000
X43000Y52000
X27000Y52000
X31000Y52000
X55000Y52000
X67000Y52000
X99000Y52000
X103000Y52000
X79000Y52000
X51000Y104000
X99000Y104000
X103000Y104000
X75000Y104000
X79000Y104000
X87000Y104000
X91000Y104000
X60750Y102000
X63000Y104250
X73500Y72000
X79000Y72000
X47000Y102000
X39000Y80000
X43000Y80000
X67000Y80000
X27000Y80000
X31000Y80000
X79000Y80000
X51000Y80000
X55000Y80000
X91000Y80000
X99000Y80000
X68750Y65300
X76000Y73000
X78500Y73000
X41430Y45500
X68000Y45500
X51500Y66000
X51500Y54000
X73500Y83500
X53430Y82750
X65500Y55500
X66000Y76000
X66000Y69000
X74000Y54500
X67000Y64000
X67500Y58000
X75000Y90000
X70000Y85000
X86000Y78000
X57000Y78500
X63000Y84500
X17430Y81500
X68000Y47000
X29430Y47000
X39000Y92000
X43000Y92000
X62000Y92000
X67000Y92000
X27000Y92000
X31000Y92000
X75000Y92000
X79000Y92000
X51000Y92000
X55000Y92000
X91000Y92000
X99000Y92000
X103000Y92000
X72000Y81250
X90250Y26750
X88750Y26750
X93000Y29250
X107750Y57250
X118250Y99250
X54500Y88000
X61000Y56000
X111500Y71000
X64000Y57750
X109250Y9500
X98250Y19750
X93000Y18000
X97000Y18000
X67000Y16000
X63000Y16000
X31000Y16000
X27000Y16000
X55000Y16000
X51000Y16000
X43000Y16000
X39000Y16000
X103000Y40000
X99000Y40000
X79000Y40000
X75000Y40000
X67000Y40000
X55000Y40000
X31000Y40000
X27000Y40000
X43000Y40000
X39000Y40000
X91000Y40000
X87000Y40000
X67500Y68100
X55500Y69000
X45000Y66000
X103000Y68000
X99000Y68000
X90750Y68500
X79000Y69000
X31000Y68000
X27000Y68000
X43000Y68000
X39000Y68000
X101430Y76000
X55500Y76000
X66500Y81000
X64500Y81000
X58000Y87000
X60000Y85500
X99750Y22250
X111500Y4000
X86000Y22250
X114250Y63000
X106500Y26750
X103500Y74500
X104000Y106000
X59850Y67750
X68500Y67250
X59000Y87000
X60250Y66000
X103000Y80000
M30