G04 EAGLE Gerber RS-274X export*
G75*
%MOMM*%
%FSLAX34Y34*%
%LPD*%
%INSilkscreen Bottom*%
%IPPOS*%
%AMOC8*
5,1,8,0,0,1.08239X$1,22.5*%
G01*
%ADD10C,0.127000*%


D10*
X702700Y82500D02*
X702700Y107500D01*
X497500Y107500D02*
X497500Y82500D01*
X697500Y82500D02*
X702700Y82500D01*
X529370Y82500D02*
X497500Y82500D01*
X497500Y107500D02*
X502700Y107500D01*
X670830Y107500D02*
X702700Y107500D01*
X681970Y82500D02*
X645230Y82500D01*
X631170Y82500D02*
X594430Y82500D01*
X580370Y82500D02*
X543630Y82500D01*
X620690Y107500D02*
X655710Y107500D01*
X604910Y107500D02*
X569890Y107500D01*
X554110Y107500D02*
X519090Y107500D01*
X686086Y75569D02*
X686891Y76374D01*
X686086Y75569D02*
X685281Y75569D01*
X684476Y76374D01*
X684476Y80399D01*
X685281Y80399D02*
X683671Y80399D01*
X681278Y78789D02*
X679668Y80399D01*
X679668Y75569D01*
X681278Y75569D02*
X678058Y75569D01*
X702700Y1092500D02*
X702700Y1117500D01*
X497500Y1117500D02*
X497500Y1092500D01*
X697500Y1092500D02*
X702700Y1092500D01*
X529370Y1092500D02*
X497500Y1092500D01*
X497500Y1117500D02*
X502700Y1117500D01*
X670830Y1117500D02*
X702700Y1117500D01*
X681970Y1092500D02*
X645230Y1092500D01*
X631170Y1092500D02*
X594430Y1092500D01*
X580370Y1092500D02*
X543630Y1092500D01*
X620690Y1117500D02*
X655710Y1117500D01*
X604910Y1117500D02*
X569890Y1117500D01*
X554110Y1117500D02*
X519090Y1117500D01*
X686086Y1085569D02*
X686891Y1086374D01*
X686086Y1085569D02*
X685281Y1085569D01*
X684476Y1086374D01*
X684476Y1090399D01*
X685281Y1090399D02*
X683671Y1090399D01*
X681278Y1085569D02*
X678058Y1085569D01*
X681278Y1085569D02*
X678058Y1088789D01*
X678058Y1089594D01*
X678863Y1090399D01*
X680473Y1090399D01*
X681278Y1089594D01*
X1092500Y561200D02*
X1117500Y561200D01*
X1117500Y356000D02*
X1092500Y356000D01*
X1117500Y556000D02*
X1117500Y561200D01*
X1117500Y387870D02*
X1117500Y356000D01*
X1092500Y356000D02*
X1092500Y361200D01*
X1092500Y529330D02*
X1092500Y561200D01*
X1117500Y540470D02*
X1117500Y503730D01*
X1117500Y489670D02*
X1117500Y452930D01*
X1117500Y438870D02*
X1117500Y402130D01*
X1092500Y479190D02*
X1092500Y514210D01*
X1092500Y463410D02*
X1092500Y428390D01*
X1092500Y412610D02*
X1092500Y377590D01*
X1120410Y535435D02*
X1119605Y536240D01*
X1119605Y537045D01*
X1120410Y537850D01*
X1124435Y537850D01*
X1124435Y537045D02*
X1124435Y538655D01*
X1123630Y541048D02*
X1124435Y541853D01*
X1124435Y543463D01*
X1123630Y544268D01*
X1122825Y544268D01*
X1122020Y543463D01*
X1122020Y542658D01*
X1122020Y543463D02*
X1121215Y544268D01*
X1120410Y544268D01*
X1119605Y543463D01*
X1119605Y541853D01*
X1120410Y541048D01*
X108500Y702200D02*
X83500Y702200D01*
X83500Y497000D02*
X108500Y497000D01*
X108500Y697000D02*
X108500Y702200D01*
X108500Y528870D02*
X108500Y497000D01*
X83500Y497000D02*
X83500Y502200D01*
X83500Y670330D02*
X83500Y702200D01*
X108500Y681470D02*
X108500Y644730D01*
X108500Y630670D02*
X108500Y593930D01*
X108500Y579870D02*
X108500Y543130D01*
X83500Y620190D02*
X83500Y655210D01*
X83500Y604410D02*
X83500Y569390D01*
X83500Y553610D02*
X83500Y518590D01*
X111410Y676435D02*
X110605Y677240D01*
X110605Y678045D01*
X111410Y678850D01*
X115435Y678850D01*
X115435Y678045D02*
X115435Y679655D01*
X115435Y684463D02*
X110605Y684463D01*
X113020Y682048D02*
X115435Y684463D01*
X113020Y685268D02*
X113020Y682048D01*
M02*
